<?xml version="1.0" encoding="utf-8"?>
<svg version="1.1" xmlns="http://www.w3.org/2000/svg" width="473.469px" height="346.051px" viewBox="0 0 473.469 346.051" xml:space="preserve">
	<g>
		<path fill="none" stroke="#FFFFFF" stroke-width="0.85" stroke-miterlimit="2" d="M98.573,1.98
			C91.966,9.131,85.406,16.427,79.008,23.7C68.807,35.293,54.28,58.17,52.449,72.812"/>
		<path fill="none" stroke="#FFFFFF" stroke-width="0.85" stroke-miterlimit="2" d="M94.419,1.838
			C76.566,21.241,62.182,39.013,58.674,44.035"/>
		<path fill="none" stroke="#FFFFFF" stroke-width="0.85" stroke-miterlimit="2" d="M63.272,107.97
			c3.456,11.056,7.466,21.934,12.019,32.585v0.006v0.004c2.431,5.697,6.403,10.607,11.465,14.182v-0.013l-0.004,0.013
			c32.12,22.664,66.352,42.177,102.222,58.266h0.002v-0.005c1.197,0.549,2.497,0.834,3.812,0.834c2.743,0,5.34-1.233,7.072-3.357
			v-0.002v-0.009c4.002-5.597,7.672-11.419,10.992-17.445"/>
		<path fill="none" stroke="#FFFFFF" stroke-width="0.85" stroke-miterlimit="2" d="M69.176,112.769
			c3.328,10.644,5.198,14.608,9.583,24.862v0.005v0.004c2.341,5.487,6.165,10.21,11.038,13.653v-0.013l-0.004,0.013
			c30.925,21.821,65.631,42.407,100.166,57.894h0.002v-0.005c1.153,0.529,2.404,0.803,3.67,0.803c2.643,0,5.143-1.188,6.809-3.232
			v-0.008c3.854-5.39,5.755-8.652,8.95-14.453"/>
		<path fill="none" stroke="#FFFFFF" stroke-width="0.85" stroke-miterlimit="2" d="M39.693,149.974
			c-1.052,3.367-1.098,7.493-0.876,9.276v0.002c0.509,3.921,1.493,7.734,3.799,10.94c6.516,9.059,8.232,11.117,17.84,19.012
			c9.61,7.893,37.92,26.42,61.084,39.633c23.829,13.593,60.471,32.918,81.748,39.955c19.03,6.293,35.325,9.781,55.371,9.781
			l7.18-0.148c16.396-0.211,32.701-1.764,48.902-4.289l-0.004-0.004v0.004c4.397-0.703,8.685-1.744,13-3.004"/>
		<path fill="none" stroke="#FFFFFF" stroke-width="0.85" stroke-linecap="round" d="M416.196,218.989
			c-14.68-8.136-37.836,5.586-51.721,30.646c-13.884,25.064-13.241,51.972,1.438,60.105"/>
		<path fill="none" stroke="#FFFFFF" stroke-width="0.85" stroke-linecap="round" d="M365.9,309.732
			c14.857,8.229,38.159-5.409,52.046-30.472c13.888-25.061,13.099-52.049-1.764-60.28"/>
		<path fill="none" stroke="#FFFFFF" stroke-width="0.85" stroke-miterlimit="2" d="M411.666,186.624
			c7.425,3.646,15.388,9.041,15.388,9.041c19.076,14.086,22.891,50.981,3.611,88.226c-18.073,34.907-48.957,55.442-73.183,48.313
			c0,0-27.584-8.824-40.037-22.873c-1.146-1.289-3.883-5.604-4.295-6.715"/>
		<path fill="none" stroke="#FFFFFF" stroke-width="0.85" stroke-miterlimit="2" d="M350.538,326.929
			c-16.57-14.162-16.489-49.931,1.207-84.115c17.669-34.134,46.769-54.84,67.891-49.571"/>
		<line fill="none" stroke="#FFFFFF" stroke-width="0.85" stroke-miterlimit="2" x1="65.351" y1="155.543" x2="60.618" y2="157.92"/>
		<line fill="none" stroke="#FFFFFF" stroke-width="0.85" stroke-miterlimit="2" x1="60.618" y1="157.92" x2="53.68" y2="161.664"/>
		<line fill="none" stroke="#FFFFFF" stroke-width="0.85" stroke-miterlimit="2" x1="53.68" y1="161.664" x2="52.742" y2="162.236"/>
		<line fill="none" stroke="#FFFFFF" stroke-width="0.85" stroke-miterlimit="2" x1="52.742" y1="162.236" x2="51.929" y2="163.296"/>
		<line fill="none" stroke="#FFFFFF" stroke-width="0.85" stroke-miterlimit="2" x1="51.93" y1="163.295" x2="51.366" y2="166.481"/>
		<line fill="none" stroke="#FFFFFF" stroke-width="0.85" stroke-miterlimit="2" x1="51.366" y1="166.481" x2="51.366" y2="167.405"/>
		<line fill="none" stroke="#FFFFFF" stroke-width="0.85" stroke-miterlimit="2" x1="51.366" y1="167.405" x2="52.055" y2="168.401"/>
		<path fill="none" stroke="#FFFFFF" stroke-width="0.85" stroke-miterlimit="2" d="M52.055,168.401v0.006
			c6.24,6.478,13.184,12.25,20.696,17.197"/>
		<path fill="none" stroke="#FFFFFF" stroke-width="0.85" stroke-miterlimit="2" d="M72.748,185.608l0.003-0.009
			c12.404,8.653,25.12,16.851,38.124,24.567"/>
		<path fill="none" stroke="#FFFFFF" stroke-width="0.85" stroke-miterlimit="2" d="M110.875,210.178l0.003,0.002
			c8.572,5.001,17.196,9.91,25.865,14.736"/>
		<path fill="none" stroke="#FFFFFF" stroke-width="0.85" stroke-miterlimit="2" d="M136.751,224.909l-0.005,0.002
			c12.726,7.137,25.684,13.85,38.853,20.129"/>
		<path fill="none" stroke="#FFFFFF" stroke-width="0.85" stroke-miterlimit="2" d="M175.603,245.034l0.005,0.008
			c9.904,4.375,19.873,8.61,29.894,12.707"/>
		<path fill="none" stroke="#FFFFFF" stroke-width="0.85" stroke-miterlimit="2" d="M328.621,272.286
			c-2.055,4.293-7.102,16.947-8.217,23.471c0,0-0.086,1.627-1.287,2.744c-1.202,1.115-3.175,4.119-12.352,5.318
			c-9.183,1.2-33.461,2.657-47.188,1.631c-13.726-1.031-16.813-2.402-19.988-3.605c-3.175-1.2-9.03-2.832-16.987-4.975
			c-11.153-3.004-26.243-8.173-37.748-13.125c-12.354-5.32-44.354-22.049-56.622-29.257c-12.268-7.204-49.362-29.233-65.715-42.294
			c-11.926-9.523-15.786-15.701-17.159-18.188c-2.002-3.629-2.831-5.49-3.607-9.193l0.004,0.016v-0.006
			c-1.656-6.433-2.644-13.875-3.844-20.411v-0.002v-0.005c-0.257-1.457-0.386-2.934-0.386-4.413c0-2.701,0.431-5.386,1.278-7.957
			v0.006v0.003c0.278-0.741,0.566-1.479,0.868-2.216v-0.012v0.002c-0.024-0.32-0.065-0.638-0.121-0.956v0.009v-0.009
			c-0.846-5.039-1.63-10.092-2.353-15.149v0.009v-0.007c-1.062-5.62-1.81-11.297-2.241-17.005v0.006h0.004
			c-0.077-0.731-0.112-1.468-0.112-2.205c0-1.886,0.246-3.76,0.74-5.58l-0.005-0.003l0.005,0.003
			c0.843-3.115,2.017-6.131,3.502-8.996V99.93v0.005c0.682-1.24,1.041-2.633,1.041-4.046c0-0.35-0.025-0.703-0.069-1.048
			l-0.003-0.005C39.458,89,38.831,83.165,38.183,77.331l0.006,0.003"/>
		<path fill="none" stroke="#FFFFFF" stroke-width="0.85" stroke-miterlimit="2" d="M328.621,272.288L328.621,272.288
			c0.08-0.195,0.171-0.521,0.171-0.729c0-0.31,0.106-0.487-0.064-0.749"/>
		<path fill="none" stroke="#FFFFFF" stroke-width="0.85" stroke-miterlimit="2" d="M117.627,119.127l-2.399-0.125
			c0,0-2.833-0.148-5.966-1.783c-5.659-2.952-44.148-29.363-56.099-40.782c-0.822-0.786-0.598-1.452-0.598-1.452
			c12.452-26.307,33.68-53.912,50.104-73.15"/>
		<path fill="none" stroke="#FFFFFF" stroke-width="0.85" stroke-miterlimit="2" d="M237.112,235.374L237.112,235.374
			c-0.319,0.488-0.687,0.938-1.098,1.354"/>
		<path fill="none" stroke="#FFFFFF" stroke-width="0.85" stroke-miterlimit="2" d="M236.014,236.723v0.007
			c-2.517,2.532-5.425,4.64-8.619,6.246"/>
		<path fill="none" stroke="#FFFFFF" stroke-width="0.85" stroke-miterlimit="2" d="M227.396,242.976l0.003,0.002
			c-1.691,0.808-3.539,1.229-5.41,1.229c-1.174,0-2.345-0.17-3.474-0.494"/>
		<path fill="none" stroke="#FFFFFF" stroke-width="0.85" stroke-miterlimit="2" d="M218.515,243.717l0.002-0.008
			c-6.764-2.146-13.379-4.73-19.801-7.74"/>
		<path fill="none" stroke="#FFFFFF" stroke-width="0.85" stroke-miterlimit="2" d="M198.715,235.983l0.003,0.01
			c-34.135-15.453-67.019-33.521-98.357-54.054"/>
		<path fill="none" stroke="#FFFFFF" stroke-width="0.85" stroke-miterlimit="2" d="M100.361,181.933l-0.004,0.006
			c-11.766-7.317-22.883-15.639-33.23-24.86"/>
		<path fill="none" stroke="#FFFFFF" stroke-width="0.85" stroke-miterlimit="2" d="M67.127,157.075v0.004
			c-3.896-3.086-6.97-7.09-8.935-11.655"/>
		<path fill="none" stroke="#FFFFFF" stroke-width="0.85" stroke-miterlimit="2" d="M58.189,145.416l0.003,0.009
			c-2.495-5.077-4.664-10.308-6.499-15.662"/>
		<path fill="none" stroke="#FFFFFF" stroke-width="0.85" stroke-miterlimit="2" d="M51.693,129.757v-0.003
			c-1.165-3.402-1.993-6.906-2.47-10.469"/>
		<path fill="none" stroke="#FFFFFF" stroke-width="0.85" stroke-miterlimit="2" d="M49.223,119.291v0.005
			c-1.263-9.376-2.221-18.791-2.875-28.231"/>
		<line fill="none" stroke="#FFFFFF" stroke-width="0.85" stroke-miterlimit="2" x1="46.35" y1="91.068" x2="46.31" y2="90.362"/>
		<line fill="none" stroke="#FFFFFF" stroke-width="0.85" stroke-miterlimit="2" x1="46.311" y1="90.362" x2="45.92" y2="89.823"/>
		<path fill="none" stroke="#FFFFFF" stroke-width="0.85" stroke-miterlimit="2" d="M45.92,89.823l-0.005-9.576
			c0.172-1.544,0.772-3.646,2.96-3.904c2.188-0.258,3.903-0.129,3.903-0.129"/>
		<path fill="none" stroke="#FFFFFF" stroke-width="0.85" stroke-miterlimit="2" d="M61.638,104.639
			c-5.715-4.256-10.933-9.139-15.546-14.565v-0.009"/>
		<path fill="none" stroke="#FFFFFF" stroke-width="0.85" stroke-miterlimit="2" d="M84.822,11.957
			c-10.594,6.36-23.79,15.578-33.078,23.73l0.004-0.012l-0.004,0.012c-2.888,2.539-5.755,5.108-8.592,7.711v-0.006v-0.009
			c-3.446,3.155-5.229,7.88-5.229,12.549v0.058v0.006c-0.158,2.662-0.41,5.069-0.41,7.739c0,4.536,0.224,9.073,0.676,13.592"/>
		<path fill="none" stroke="#FFFFFF" stroke-width="0.85" stroke-miterlimit="2" d="M40.689,102.307v-0.003
			c0.388,8.187,3.156,16.088,7.968,22.727"/>
		<path fill="none" stroke="#FFFFFF" stroke-width="0.85" stroke-miterlimit="2" d="M37.432,134.353
			c1.208,5.466,2.505,10.908,3.893,16.33l-0.002,0.002c1.628,6.359,4.808,12.209,9.254,17.035"/>
		<path fill="none" stroke="#FFFFFF" stroke-width="0.85" stroke-miterlimit="2" d="M322.658,118.339
			c23.743-8.12,47.267-16.866,70.551-26.218"/>
		<path fill="none" stroke="#FFFFFF" stroke-width="0.85" stroke-miterlimit="2" d="M323.163,88.316
			c-2.2,5.381-3.869,10.961-4.978,16.664"/>
		<path fill="none" stroke="#FFFFFF" stroke-width="0.85" stroke-miterlimit="2" d="M319.66,91.494
			c-1.638,4.121-2.976,8.351-4.009,12.661"/>
		<path fill="none" stroke="#FFFFFF" stroke-width="0.85" stroke-miterlimit="2" d="M335.186,118.661
			c23.299-8.012,46.386-16.636,69.229-25.856"/>
		<path fill="none" stroke="#FFFFFF" stroke-width="0.85" stroke-miterlimit="2" d="M423.563,112.598
			c13.357-6.221,26.698-12.48,40.021-18.777"/>
		<path fill="none" stroke="#FFFFFF" stroke-width="0.85" stroke-miterlimit="2" d="M405.462,92.618v-0.005
			c0.442,2.359,1.104,4.673,1.979,6.909"/>
		<path fill="none" stroke="#FFFFFF" stroke-width="0.85" stroke-miterlimit="2" d="M407.438,99.525l0.004,0.004
			c1.72,4.413,3.649,8.746,5.783,12.976"/>
		<path fill="none" stroke="#FFFFFF" stroke-width="0.85" stroke-miterlimit="2" d="M413.225,112.503L413.225,112.503
			c1.344,2.656,2.246,5.514,2.681,8.46"/>
		<path fill="none" stroke="#FFFFFF" stroke-width="0.85" stroke-miterlimit="2" d="M415.908,120.963v-0.003
			c0.759,5.157,2.14,10.203,4.117,15.025"/>
		<path fill="none" stroke="#FFFFFF" stroke-width="0.85" stroke-miterlimit="2" d="M420.025,135.993L420.025,135.993
			c2.899,6.518,6.74,12.576,11.406,17.979"/>
		<path fill="none" stroke="#FFFFFF" stroke-width="0.85" stroke-miterlimit="2" d="M431.432,153.975L431.432,153.975
			c5.12,6.453,10.64,12.581,16.522,18.346"/>
		<path fill="none" stroke="#FFFFFF" stroke-width="0.85" stroke-miterlimit="2" d="M447.955,172.312v-0.009
			c7.479,7.354,13.731,16.676,17.585,26.429"/>
		<path fill="none" stroke="#FFFFFF" stroke-width="0.85" stroke-miterlimit="2" d="M465.591,225.959
			c-4.312,2.445-8.608,4.894-12.887,7.342"/>
		<path fill="none" stroke="#FFFFFF" stroke-width="0.85" stroke-miterlimit="2" d="M452.692,233.297v0.013
			c-2.057,1.399-5.719,2.619-9.035,2.159"/>
		<line fill="none" stroke="#FFFFFF" stroke-width="0.85" stroke-miterlimit="2" x1="465.856" y1="199.559" x2="465.464" y2="199.236"/>
		<line fill="none" stroke="#FFFFFF" stroke-width="0.85" stroke-miterlimit="2" x1="464.512" y1="199.782" x2="454.524" y2="205.502"/>
		<line fill="none" stroke="#FFFFFF" stroke-width="0.85" stroke-miterlimit="2" x1="465.464" y1="199.236" x2="464.512" y2="199.782"/>
		<line fill="none" stroke="#FFFFFF" stroke-width="0.85" stroke-miterlimit="2" x1="454.524" y1="205.502" x2="453.352" y2="205.502"/>
		<line fill="none" stroke="#FFFFFF" stroke-width="0.85" stroke-miterlimit="2" x1="453.352" y1="205.502" x2="453.039" y2="205.034"/>
		<line fill="none" stroke="#FFFFFF" stroke-width="0.85" stroke-miterlimit="2" x1="327.738" y1="271.125" x2="328.602" y2="270.833"/>
		<path fill="none" stroke="#FFFFFF" stroke-width="0.85" stroke-miterlimit="2" d="M271.658,148.69
			c24.91-7.203,49.519-15.432,73.751-24.659"/>
		<path fill="none" stroke="#FFFFFF" stroke-width="0.85" stroke-miterlimit="2" d="M279.23,73.221
			c1.297-1.394,5.082-4.923,10.795-5.674c7.16-0.941,10.188-1.391,11.416-1.719"/>
		<path fill="none" stroke="#FFFFFF" stroke-width="0.85" stroke-miterlimit="2" d="M230.481,178.577
			c-0.106-0.24-0.182-0.492-0.221-0.752v0.002v-0.002c-0.024-0.152-0.033-0.306-0.033-0.453v-0.027l-0.004,0.008v0.007
			c1.297-15.984,6.077-31.331,13.606-45.733l0.003-0.005l-0.003,0.002c10.457-20.138,22.067-39.101,34.901-57.813v-0.016
			c0,0,0.17-0.216,0.498-0.571"/>
		<path fill="none" stroke="#FFFFFF" stroke-width="0.85" stroke-miterlimit="2" d="M238.213,200.497
			c-0.193-3.73-0.473-7.451-0.837-11.166v0.002v-0.006c-0.232-1.607-0.793-3.147-1.642-4.535v0.008l0.001,0.005
			c-1.58-1.776-2.949-3.568-4.591-5.288v-0.006v0.002c-0.281-0.268-0.506-0.586-0.663-0.936"/>
		<path fill="none" stroke="#FFFFFF" stroke-width="0.85" stroke-miterlimit="2" d="M212.104,191.506l0.002-0.01
			c8.377,3.394,16.867,6.5,25.453,9.32"/>
		<line fill="none" stroke="#FFFFFF" stroke-width="0.85" stroke-miterlimit="2" x1="238.813" y1="201.825" x2="239.006" y2="206.624"/>
		<path fill="none" stroke="#FFFFFF" stroke-width="0.85" stroke-miterlimit="2" d="M239.006,206.624L239.006,206.624
			c0.225,3.174,0.342,6.355,0.342,9.539c0,2.949-0.017,5.898-0.1,10.612"/>
		<path fill="none" stroke="#FFFFFF" stroke-width="0.85" stroke-miterlimit="2" d="M239.249,226.782l-0.003-0.003
			c-0.114,1.368-0.299,2.745-0.434,4.113"/>
		<path fill="none" stroke="#FFFFFF" stroke-width="0.85" stroke-miterlimit="2" d="M238.816,230.895v-0.005
			c-0.137,1.411-0.928,3.299-1.705,4.483"/>
		<line fill="none" stroke="#FFFFFF" stroke-width="0.85" stroke-miterlimit="2" x1="220.329" y1="244.088" x2="210.305" y2="253.594"/>
		<line fill="none" stroke="#FFFFFF" stroke-width="0.85" stroke-miterlimit="2" x1="210.304" y1="253.594" x2="206.346" y2="257.01"/>
		<line fill="none" stroke="#FFFFFF" stroke-width="0.85" stroke-miterlimit="2" x1="206.346" y1="257.01" x2="205.909" y2="257.01"/>
		<path fill="none" stroke="#FFFFFF" stroke-width="0.85" stroke-miterlimit="2" d="M239,201.674
			c7.896,2.373,16.006,3.976,24.211,4.783v0.014c3.229,0.316,6.471,0.479,9.712,0.479c5.942,0,11.875-0.537,17.724-1.609
			l0.002,0.006c5.353-1.68,10.674-3.461,15.957-5.352c0,0,0.898-0.31,1.013-0.912"/>
		<path fill="none" stroke="#FFFFFF" stroke-width="0.85" stroke-miterlimit="2" d="M229.456,177.622
			c-25.289-9.638-50.583-21.105-74.307-34.128l0.004,0.006l-0.004-0.014c-1.634-0.975-3.056-2.271-4.187-3.801v0.006v-0.006
			c-1.168-1.66-2.279-3.361-3.332-5.091v0.007l-0.003,0.001c-1.175-1.749-2.622-3.292-4.287-4.587v0.002
			c-3.558-2.304-10.85-6.492-14.518-8.61v-0.002c0,0-1.604-0.904-2.83-1.048"/>
		<path fill="none" stroke="#FFFFFF" stroke-width="0.85" stroke-miterlimit="2" d="M127.192,122.346v0.002
			c3.667,2.12,10.961,6.307,14.519,8.611v-0.002c1.665,1.295,3.111,2.839,4.287,4.587l0.002-0.001v-0.007
			c1.052,1.73,2.163,3.43,3.332,5.09v0.006v-0.006c1.13,1.531,2.553,2.827,4.187,3.803l0.004,0.015l-0.004-0.008
			c23.725,13.024,49.019,24.49,74.306,34.13c0,0,1.211,0.341,2.241,1.541c1.03,1.202,4.461,5.317,4.461,5.317
			s1.373,2.232,1.545,3.947c0.171,1.715,0.686,10.211,0.686,10.211"/>
		<path fill="none" stroke="#FFFFFF" stroke-width="0.85" stroke-miterlimit="2" d="M453.039,205.034v-0.265
			c0-5.582-2.76-11.711-6.637-15.728"/>
		<path fill="none" stroke="#FFFFFF" stroke-width="0.85" stroke-miterlimit="2" d="M318.373,213.872l0.011-0.006
			c-3.267-4.531-6.54-9.063-9.819-13.594"/>
		<path fill="none" stroke="#FFFFFF" stroke-width="0.85" stroke-miterlimit="2" d="M308.553,200.272l-2.744-3.66
			c-5.098-7.752-9.715-13.857-15.557-21.063v-0.004v-0.002c-2.896-2.913-5.9-5.712-9.008-8.396v0.007v-0.005
			c-4.51-3.22-8.616-7.003-12.357-11.091v-0.006v-0.003c-2.832-3.337-3.85-7.473-3.85-11.848c0-1.678,0.229-3.352,0.684-4.969
			v-0.004v0.004c4.465-13.309,8.492-23.739,14.576-34.7v-0.002v0.006c7.654-15.282,15.539-29.285,24.563-44.399"/>
		<path fill="none" stroke="#FFFFFF" stroke-width="0.85" stroke-miterlimit="2" d="M205.962,257.709
			c3.12,0.942,6.303,1.658,9.53,2.138v0.002c1.15,0.278,2.33,0.421,3.509,0.421c2.769,0,5.475-0.771,7.825-2.229v-0.002
			c4.734-2.935,9.237-6.225,13.472-9.851c4.789-4.103,10.789-6.524,17.083-6.896h-0.003c14.07-0.832,28.011-3.201,41.563-7.06
			v-0.002c1.379-0.83,2.224-2.321,2.224-3.933c0-0.508-0.084-1.008-0.252-1.486v0.005c-1.371-4.006-6.59-17.14-9.335-22.631"/>
		<line fill="none" stroke="#FFFFFF" stroke-width="0.85" stroke-miterlimit="2" x1="328.602" y1="270.833" x2="328.856" y2="270.772"/>
		<line fill="none" stroke="#FFFFFF" stroke-width="0.85" stroke-miterlimit="2" x1="328.856" y1="270.772" x2="329.208" y2="270.5"/>
		<path fill="none" stroke="#FFFFFF" stroke-width="0.85" stroke-miterlimit="2" d="M329.208,270.5v0.006
			c7.999-17.184,18.474-32.729,31.063-46.896"/>
		<path fill="none" stroke="#FFFFFF" stroke-width="0.85" stroke-miterlimit="2" d="M360.268,223.614v-0.008
			c0.068-0.078,0.118-0.166,0.149-0.266"/>
		<path fill="none" stroke="#FFFFFF" stroke-width="0.85" stroke-miterlimit="2" d="M318.373,213.881v-0.012
			c2.432,2.957,4.346,6.728,12.04,7.646v0.007v0.006c7.129,0.822,23.054,1.265,30.227,1.396"/>
		<line fill="none" stroke="#FFFFFF" stroke-width="0.85" stroke-miterlimit="2" x1="360.639" y1="222.922" x2="360.895" y2="222.801"/>
		<line fill="none" stroke="#FFFFFF" stroke-width="0.85" stroke-miterlimit="2" x1="360.895" y1="222.801" x2="360.955" y2="222.653"/>
		<path fill="none" stroke="#FFFFFF" stroke-width="0.85" stroke-miterlimit="2" d="M453.352,205.502
			c0.37,4.115-0.088,8.692-0.314,13.269c-0.098,1.944-0.177,8.233-0.114,10.181"/>
		<path fill="none" stroke="#FFFFFF" stroke-width="0.85" stroke-miterlimit="2" d="M443.706,234.129
			c0.446,0.039,0.896,0.062,1.345,0.062c2.243,0,6.499-1.353,7.872-5.239"/>
		<path fill="none" stroke="#FFFFFF" stroke-width="0.85" stroke-miterlimit="2" d="M407.742,120.449
			c-36.048,18.021-69.778,33.119-111.988,50.965"/>
		<path fill="none" stroke="#FFFFFF" stroke-width="0.85" stroke-miterlimit="2" d="M318.647,109.217
			c1.558,4.142,5.437,6.952,9.854,7.138"/>
		<path fill="none" stroke="#FFFFFF" stroke-width="0.85" stroke-miterlimit="2" d="M315.651,104.147
			c-0.33,1.122-0.496,2.283-0.496,3.447c0,5.179,3.265,9.796,8.143,11.521"/>
		<path fill="none" stroke="#FFFFFF" stroke-width="0.85" stroke-miterlimit="2" d="M323.296,119.114
			c1.689,0.429,3.427,0.644,5.167,0.644c2.286,0,4.557-0.375,6.721-1.105"/>
		<path fill="none" stroke="#FFFFFF" stroke-width="0.85" stroke-miterlimit="2" d="M318.186,104.978
			c-0.059,0.404-0.086,0.812-0.086,1.222c0,1.028,0.186,2.051,0.548,3.014"/>
		<path fill="none" stroke="#FFFFFF" stroke-width="0.85" stroke-miterlimit="2" d="M446.402,189.03
			c-2.865-2.646-6.323-4.556-10.182-5.146v0.013v-0.005c-2.265-0.325-4.574-0.693-6.862-0.693c-2.613,0-5.543,0.489-8.121,0.915
			v-0.011v0.007c-6.407,1.377-15.502,4.175-22.535,8.125v0.007v0.002c-14.292,8.022-26.604,18.404-37.747,30.418"/>
		<path fill="none" stroke="#FFFFFF" stroke-width="0.85" stroke-miterlimit="2" d="M405.875,13.95l-0.014,0.013
			c6.429-4.159,12.895-8.259,19.396-12.302"/>
		<path fill="none" stroke="#FFFFFF" stroke-width="0.85" stroke-miterlimit="2" d="M407.452,86.92
			c18.86-6.987,37.559-14.391,56.082-22.207"/>
		<path fill="none" stroke="#FFFFFF" stroke-width="0.85" stroke-miterlimit="2" d="M406.661,91.771
			c19.142-6.905,38.113-14.259,56.898-22.055"/>
		<path fill="none" stroke="#FFFFFF" stroke-width="0.85" stroke-miterlimit="2" d="M415.571,1.096
			c-3.369,2.037-6.729,4.087-10.081,6.151"/>
		<line fill="none" stroke="#FFFFFF" stroke-width="0.85" stroke-miterlimit="2" x1="415.981" y1="0.847" x2="415.571" y2="1.096"/>
		<path fill="none" stroke="#FFFFFF" stroke-width="0.85" stroke-miterlimit="2" d="M371.753,1.913
			c-7.512,4.366-15,8.771-22.465,13.217"/>
		<path fill="none" stroke="#FFFFFF" stroke-width="0.85" stroke-miterlimit="2" d="M349.285,15.13l0.003-0.004
			c-13.091,8.26-25.712,17.235-37.813,26.885"/>
		<path fill="none" stroke="#FFFFFF" stroke-width="0.85" stroke-miterlimit="2" d="M353.933,2.855
			c-4.142,2.438-8.275,4.89-12.402,7.353"/>
		<path fill="none" stroke="#FFFFFF" stroke-width="0.85" stroke-miterlimit="2" d="M341.536,10.193v0.003
			c-12.974,7.643-22.923,14.413-34.667,23.832c0,0-2.422,2.275-2.862,4.917"/>
		<path fill="none" stroke="#FFFFFF" stroke-width="0.85" stroke-miterlimit="2" d="M255.126,4.513
			c5.84,3.715,11.638,7.511,17.408,11.391"/>
		<path fill="none" stroke="#FFFFFF" stroke-width="0.85" stroke-miterlimit="2" d="M272.535,15.908l-0.002-0.004
			c10.021,6.741,19.736,14.22,28.785,22.223"/>
		<line fill="none" stroke="#FFFFFF" stroke-width="0.85" stroke-miterlimit="2" x1="301.32" y1="38.122" x2="301.746" y2="38.323"/>
		<line fill="none" stroke="#FFFFFF" stroke-width="0.85" stroke-miterlimit="2" x1="301.746" y1="38.323" x2="302.384" y2="38.408"/>
		<line fill="none" stroke="#FFFFFF" stroke-width="0.85" stroke-miterlimit="2" x1="302.384" y1="38.408" x2="302.684" y2="38.492"/>
		<line fill="none" stroke="#FFFFFF" stroke-width="0.85" stroke-miterlimit="2" x1="302.684" y1="38.492" x2="304.206" y2="39.841"/>
		<path fill="none" stroke="#FFFFFF" stroke-width="0.85" stroke-miterlimit="2" d="M304.206,39.841l-0.001-0.003
			c1.497,1.494,2.963,3.023,4.394,4.581"/>
		<path fill="none" stroke="#FFFFFF" stroke-width="0.85" stroke-miterlimit="2" d="M308.598,44.423v-0.009
			c0.553,0.596,0.86,1.38,0.86,2.192"/>
		<path fill="none" stroke="#FFFFFF" stroke-width="0.85" stroke-miterlimit="2" d="M309.458,46.614v0.003
			c0.004,1.212,0.229,2.027,0.259,3.238"/>
		<path fill="none" stroke="#FFFFFF" stroke-width="0.85" stroke-miterlimit="2" d="M309.715,49.847L309.715,49.847
			c0.002,0.046,0.002,0.087,0.002,0.136c0,1.028-0.278,2.04-0.814,2.916"/>
		<path fill="none" stroke="#FFFFFF" stroke-width="0.85" stroke-miterlimit="2" d="M308.905,52.897L308.905,52.897
			c-1.987,3.29-3.911,6.617-5.775,9.971"/>
		<path fill="none" stroke="#FFFFFF" stroke-width="0.85" stroke-miterlimit="2" d="M220.285,11.761
			c-5.39-3.217-10.813-6.38-16.266-9.488"/>
		<path fill="none" stroke="#FFFFFF" stroke-width="0.85" stroke-miterlimit="2" d="M160.489,2.737
			c7.762,5.748,17.537,12.582,27.598,18.778c21.02,12.948,54.569,27.007,58.886,28.399c4.313,1.392,7.068,0.016,7.068,0.016
			c0.479-0.141,0.938-0.323,1.384-0.544"/>
		<path fill="none" stroke="#FFFFFF" stroke-width="0.85" stroke-miterlimit="2" d="M255.425,49.394l0.003,0.002
			c7.504-3.815,14.889-7.862,22.139-12.137l0.006-0.01c0.228-0.13,0.369-0.369,0.369-0.631c0-0.293-0.184-0.56-0.45-0.67v-0.003
			v0.012c-16.063-11.55-32.619-22.395-49.62-32.511l0.002-0.011V3.44c-0.678-0.403-1.356-0.805-2.035-1.206"/>
		<path fill="none" stroke="#FFFFFF" stroke-width="0.85" stroke-miterlimit="2" d="M260.27,35.874
			c3.254,1.891,6.951,2.89,10.717,2.89c0.621,0,1.244-0.03,1.861-0.083"/>
		<path fill="none" stroke="#FFFFFF" stroke-width="0.85" stroke-miterlimit="2" d="M274.596,38.271
			c0.65-0.249,1.247-0.624,1.754-1.102"/>
		<path fill="none" stroke="#FFFFFF" stroke-width="0.85" stroke-miterlimit="2" d="M276.35,37.172
			c0.164-0.151,0.256-0.364,0.256-0.589c0-0.224-0.092-0.437-0.256-0.591"/>
		<path fill="none" stroke="#FFFFFF" stroke-width="0.85" stroke-miterlimit="2" d="M272.848,38.681
			c0.604-0.053,1.188-0.191,1.748-0.409"/>
		<path fill="none" stroke="#FFFFFF" stroke-width="0.85" stroke-miterlimit="2" d="M260.27,35.865
			c-13.094-8.423-26.427-16.46-39.984-24.105"/>
		<path fill="none" stroke="#FFFFFF" stroke-width="0.85" stroke-miterlimit="2" d="M309.555,44.806l0.017-0.002
			c5.466-3.65,10.914-7.328,16.339-11.039"/>
		<path fill="none" stroke="#FFFFFF" stroke-width="0.85" stroke-miterlimit="2" d="M325.92,33.75l0.002,0.01
			c17.786-10.951,35.712-21.673,53.773-32.162"/>
		<path fill="none" stroke="#FFFFFF" stroke-width="0.85" stroke-miterlimit="2" d="M404.017,12.14
			c-18.55,10.895-36.602,22.618-54.099,35.13"/>
		<path fill="none" stroke="#FFFFFF" stroke-width="0.85" stroke-miterlimit="2" d="M405.488,7.255
			c-19.455,11.813-38.487,24.32-57.051,37.49"/>
		<path fill="none" stroke="#FFFFFF" stroke-width="0.85" stroke-miterlimit="2" d="M333.645,60.695
			c-5.908,9.647-10.609,19.987-13.984,30.791"/>
		<path fill="none" stroke="#FFFFFF" stroke-width="0.85" stroke-miterlimit="2" d="M333.17,66.417
			c-3.762,7.1-7.104,14.41-10.011,21.897"/>
		<path fill="none" stroke="#FFFFFF" stroke-width="0.85" stroke-miterlimit="2" d="M348.438,44.737
			c-5.979,4.241-11.016,9.674-14.787,15.961"/>
		<path fill="none" stroke="#FFFFFF" stroke-width="0.85" stroke-miterlimit="2" d="M349.918,47.27
			c-6.993,4.999-12.728,11.553-16.748,19.15"/>
		<line fill="none" stroke="#FFFFFF" stroke-width="0.85" stroke-miterlimit="2" x1="405.425" y1="87.161" x2="405.262" y2="89.113"/>
		<line fill="none" stroke="#FFFFFF" stroke-width="0.85" stroke-miterlimit="2" x1="405.262" y1="89.113" x2="405.303" y2="92.147"/>
		<line fill="none" stroke="#FFFFFF" stroke-width="0.85" stroke-miterlimit="2" x1="405.303" y1="92.147" x2="404.528" y2="92.721"/>
		<line fill="none" stroke="#FFFFFF" stroke-width="0.85" stroke-miterlimit="2" x1="393.213" y1="92.111" x2="394.416" y2="91.521"/>
		<line fill="none" stroke="#FFFFFF" stroke-width="0.85" stroke-miterlimit="2" x1="404.936" y1="88.456" x2="395.482" y2="92.179"/>
		<line fill="none" stroke="#FFFFFF" stroke-width="0.85" stroke-miterlimit="2" x1="395.482" y1="92.179" x2="394.21" y2="91.694"/>
		<path fill="none" stroke="#FFFFFF" stroke-width="0.85" stroke-miterlimit="2" d="M414.519,9.05V9.043
			c1.371,13.081,2.196,26.214,2.491,39.366"/>
		<path fill="none" stroke="#FFFFFF" stroke-width="0.85" stroke-miterlimit="2" d="M417.007,48.414l0.003-0.011
			c3.446,9.974,7.113,19.875,10.993,29.689"/>
		<path fill="none" stroke="#FFFFFF" stroke-width="0.85" stroke-miterlimit="2" d="M405.425,87.143
			c0.939-12.657,1.408-25.346,1.408-38.038c0-13.548-0.537-27.088-1.602-40.596"/>
		<path fill="none" stroke="#FFFFFF" stroke-width="0.85" stroke-miterlimit="2" d="M449.858,127.997
			c0.066-0.523-0.019-0.743-0.019-1.273c0-0.977-0.112-1.943-0.34-2.883v-0.003v0.003c-0.015-0.271-0.126-0.528-0.315-0.722v-0.004
			v-0.005c-0.719-0.929-1.524-1.786-2.402-2.564"/>
		<path fill="none" stroke="#FFFFFF" stroke-width="0.85" stroke-miterlimit="2" d="M447.647,119.981l-0.005-0.012
			c-2.643,1.18-5.256,2.416-7.843,3.705v0.014v-0.01c-0.646,0.593-1.112,1.355-1.347,2.2l-0.035,0.723l-0.03,0.828l-0.099,0.186
			h0.002c-0.002,0.096-0.002,0.191-0.002,0.285c0,0.931,0.099,1.862,0.294,2.771"/>
		<path fill="none" stroke="#FFFFFF" stroke-width="0.85" stroke-miterlimit="2" d="M438.585,130.666L438.585,130.666
			c0.13,0.134,0.246,0.282,0.345,0.437"/>
		<path fill="none" stroke="#FFFFFF" stroke-width="0.85" stroke-miterlimit="2" d="M438.93,131.102L438.93,131.102
			c0.135,0.172,0.313,0.3,0.521,0.365"/>
		<path fill="none" stroke="#FFFFFF" stroke-width="0.85" stroke-miterlimit="2" d="M439.45,131.472L439.45,131.472
			c0.524-0.023,1.049-0.07,1.566-0.15"/>
		<path fill="none" stroke="#FFFFFF" stroke-width="0.85" stroke-miterlimit="2" d="M449.116,128.844v-0.005
			c1.044,0.95,2.4,1.471,3.809,1.471c0.836,0,1.659-0.186,2.417-0.538"/>
		<path fill="none" stroke="#FFFFFF" stroke-width="0.85" stroke-miterlimit="2" d="M455.341,129.772l-0.002,0.007
			c3.068-1.185,5.945-2.828,8.527-4.867l0.002,0.006v-0.016c2.143-1.894,3.65-4.396,4.33-7.174"/>
		<path fill="none" stroke="#FFFFFF" stroke-width="0.85" stroke-miterlimit="2" d="M467.695,110.625v-0.006
			c-0.891-1.655-2.615-2.689-4.496-2.689c-0.404,0-0.811,0.049-1.205,0.144"/>
		<path fill="none" stroke="#FFFFFF" stroke-width="0.85" stroke-miterlimit="2" d="M461.994,108.081v-0.008
			c-3.492,0.904-6.748,2.558-9.529,4.854"/>
		<path fill="none" stroke="#FFFFFF" stroke-width="0.85" stroke-miterlimit="2" d="M452.464,112.937v-0.01
			c-2.273,1.818-3.913,4.313-4.686,7.115"/>
		<path fill="none" stroke="#FFFFFF" stroke-width="0.85" stroke-miterlimit="2" d="M448.544,119.151v0.006
			c0.057,0.007,0.11,0.018,0.162,0.036"/>
		<path fill="none" stroke="#FFFFFF" stroke-width="0.85" stroke-miterlimit="2" d="M448.707,119.186v-0.008
			c0.934,0.444,1.955,0.677,2.994,0.677c0.856,0,1.709-0.158,2.507-0.467v0.003v-0.003c3.36-1.334,6.582-2.995,9.625-4.948v0.012
			v0.003c0.517-0.34,0.892-0.859,1.043-1.462l0.002-0.012c0.023-0.086,0.036-0.175,0.036-0.263c0-0.421-0.249-0.801-0.632-0.977"/>
		<path fill="none" stroke="#FFFFFF" stroke-width="0.85" stroke-miterlimit="2" d="M472.563,110.343l0.004,0.009
			c-0.061-0.401-0.325-0.739-0.7-0.884"/>
		<path fill="none" stroke="#FFFFFF" stroke-width="0.85" stroke-miterlimit="2" d="M471.866,109.466v-0.007
			c-0.146-0.056-0.302-0.089-0.46-0.089c-0.144,0-0.278,0.027-0.415,0.073"/>
		<path fill="none" stroke="#FFFFFF" stroke-width="0.85" stroke-miterlimit="2" d="M470.991,109.443l0.003-0.001
			c-1.396,0.484-2.795,0.956-4.194,1.431"/>
		<path fill="none" stroke="#FFFFFF" stroke-width="0.85" stroke-miterlimit="2" d="M466.794,110.88v-0.008
			c-0.266-0.07-0.54-0.106-0.813-0.106c-0.656,0-1.295,0.2-1.83,0.569"/>
		<path fill="none" stroke="#FFFFFF" stroke-width="0.85" stroke-miterlimit="2" d="M464.15,111.351v-0.01
			c-0.271,0.228-0.468,0.538-0.545,0.885"/>
		<path fill="none" stroke="#FFFFFF" stroke-width="0.85" stroke-miterlimit="2" d="M463.605,112.226v0.011
			c-0.146,0.469-0.216,0.964-0.216,1.455c0,0.252,0.016,0.508,0.058,0.758"/>
		<path fill="none" stroke="#FFFFFF" stroke-width="0.85" stroke-miterlimit="2" d="M441.017,131.322v-0.005
			c2.969-0.809,5.865-1.864,8.664-3.148l0.327-0.151c7.834-3.338,15.173-7.732,21.814-13.063v-0.014v0.004
			c0.231-0.183,0.449-0.374,0.648-0.589v0.012v-0.009c0.234-0.355,0.358-0.769,0.362-1.194v0.007v-0.007
			c0.037-0.25,0.055-0.501,0.055-0.753c0-0.625-0.105-1.242-0.316-1.832"/>
		<path fill="none" stroke="#FFFFFF" stroke-width="0.85" stroke-miterlimit="2" d="M472.572,110.578l0.003,0.012
			c0-0.031,0.002-0.058,0.002-0.081c0-0.053-0.005-0.108-0.011-0.158"/>
		<path fill="none" stroke="#FFFFFF" stroke-width="0.85" stroke-miterlimit="2" d="M441.941,130.665
			c-0.975,0.171-2.048-4.202,0.284-4.861c3.031-0.859,6.007-1.832,8.122-2.632c1.71-0.647,16.186-6.29,21.446-12.582"/>
		<ellipse transform="matrix(0.3701 -0.929 0.929 0.3701 46.0085 439.9523)" fill="none" stroke="#FFFFFF" stroke-width="0.85" stroke-miterlimit="2" cx="347.429" cy="186.049" rx="16.708" ry="12.255"/>
		<path fill="none" stroke="#FFFFFF" stroke-width="0.85" stroke-miterlimit="2" d="M302.516,38.777l-2.086,1.115
			c0,0-0.781,0.677-2.785-0.836c-11.228-8.478-25.283-19.407-51.093-35.504"/>
		<path fill="none" stroke="#FFFFFF" stroke-width="0.85" stroke-miterlimit="2" d="M287.46,68.751
			c-9.094,12.869-33.044,53.598-41.867,74.638c-4.461,10.636-5.317,30.197,24.88,34.486"/>
		<path fill="none" stroke="#FFFFFF" stroke-width="0.85" stroke-miterlimit="2" d="M289.861,204.299
			c-7.377-14.412-14.411-24.192-20.76-29.855c-6.35-5.663-19.047-16.125-14.242-31.742"/>
		<path fill="none" stroke="#FFFFFF" stroke-width="0.85" stroke-miterlimit="2" d="M210.248,254.747
			c3.947,0.856,9.609,1.545,17.159-5.317c7.548-6.865,14.241-12.87,29.167-14.245"/>
		<path fill="none" stroke="#FFFFFF" stroke-width="0.85" stroke-miterlimit="2" d="M205.444,253.374
			c-18.017-5.662-60.226-27.281-88.022-43.238s-57.137-37.232-64.343-45.641"/>
		<path fill="none" stroke="#FFFFFF" stroke-width="0.85" stroke-miterlimit="2" d="M51.449,162.178
			c-3.003-3.175-3.947-6.521-5.32-11.496c-1.372-4.977-4.975-24.109-6.091-29.771c-1.115-5.662-0.686-9.266-0.514-10.895"/>
		<ellipse transform="matrix(-0.417 -0.9089 0.9089 -0.417 -59.958 366.1035)" fill="none" stroke="#FFFFFF" stroke-width="0.85" stroke-miterlimit="2" cx="87.439" cy="202.282" rx="1.889" ry="1.03"/>
		<ellipse transform="matrix(-0.4175 -0.9087 0.9087 -0.4175 3.247 487.7397)" fill="none" stroke="#FFFFFF" stroke-width="0.85" stroke-miterlimit="2" cx="157.958" cy="242.829" rx="1.888" ry="1.031"/>
		<path fill="none" stroke="#FFFFFF" stroke-width="0.85" stroke-miterlimit="2" d="M117.198,120.669l-2.398-0.121
			c0,0-2.834-0.149-5.967-1.783c-5.659-2.954-44.288-29.219-56.098-40.783c0,0-1.2-1.595-3.602-1.339"/>
		<path fill="none" stroke="#FFFFFF" stroke-width="0.85" stroke-miterlimit="2" d="M130.376,127.33
			c0.759-0.429,1.59-0.568,2.376-0.337c1.919,0.566,2.849,3.143,2.078,5.752c-0.771,2.61-2.952,4.266-4.869,3.699
			c-0.959-0.283-1.671-1.068-2.047-2.11"/>
		<path fill="none" stroke="#FFFFFF" stroke-width="0.85" stroke-miterlimit="2" d="M130.46,134.752
			c1.231,0.364,2.631-0.699,3.127-2.375c0.495-1.676-0.102-3.329-1.334-3.694l-1.876-0.823l-4.205-6.863
			c0,0-3.259-5.061-4.804-7.121c-1.544-2.058-5.405-5.404-9.18-7.635c-3.774-2.231-42.123-27.968-43.41-28.655
			c-1.287-0.686-1.801-0.6-2.231-0.085c-0.429,0.514-0.171,1.372,0.858,2.317c1.03,0.944,40.322,28.912,40.322,28.912
			s5.148,3.258,8.236,7.976c3.089,4.721,8.664,13.9,8.664,13.9s0.516,1.801,2.489,2.917
			C129.089,134.638,130.46,134.752,130.46,134.752z"/>
		<path fill="none" stroke="#FFFFFF" stroke-width="0.85" stroke-miterlimit="2" d="M130.548,128.376
			c1.201,1.629,1.63,2.316,0.857,3.945c-0.772,1.63-2.058,2.23-3.173,1.718"/>
		<path fill="none" stroke="#FFFFFF" stroke-width="0.85" stroke-miterlimit="2" d="M126.172,132.495
			c1.63,0.428,4.032-1.631,2.66-4.119c-1.373-2.487-9.866-15.098-9.866-15.098s-2.059-2.489-5.405-4.805
			c-3.346-2.317-40.236-26.852-40.236-26.852l-5.576-3.518"/>
		<line fill="none" stroke="#FFFFFF" stroke-width="0.85" stroke-miterlimit="2" x1="72.296" y1="83.164" x2="73.583" y2="81.19"/>
		<path fill="none" stroke="#FFFFFF" stroke-width="0.85" stroke-miterlimit="2" d="M237.271,202.071c0,0,0.602,26.079,0.516,26.338
			c-0.086,0.256,0.688,5.92-3.604,9.693"/>
		<path fill="none" stroke="#FFFFFF" stroke-width="0.85" stroke-miterlimit="2" d="M62.645,103.239l-1.287,1.199
			c0,0-0.508,0.983,0.472,2.017c3.774,3.991,34.487,28.27,62.541,44.397c27.684,15.916,70.263,36.035,83.903,40.753
			c0,0,2.66,1.112,4.119,0.856"/>
		<path fill="none" stroke="#FFFFFF" stroke-width="0.85" stroke-miterlimit="2" d="M211.964,191.948c0,0-1.287-2.832-2.746-4.461
			c-1.458-1.632-3.088-2.574-5.833-3.947c-2.746-1.373-45.641-21.276-75.582-38.606c-29.941-17.329-59.883-39.377-62.113-41.007
			c0,0-1.544-1.288-3.002-0.686"/>
		<path fill="none" stroke="#FFFFFF" stroke-width="0.85" stroke-miterlimit="2" d="M210.677,191.605
			c-1.802-2.83-3.346-4.806-9.094-7.293s-48.043-21.534-76.955-39.207c-28.911-17.673-53.619-35.433-59.024-39.723
			c0,0-1.973-1.8-3.346-1.113"/>
		<line fill="none" stroke="#FFFFFF" stroke-width="0.85" stroke-miterlimit="2" x1="154.594" y1="182.374" x2="156.566" y2="168.353"/>
		<line fill="none" stroke="#FFFFFF" stroke-width="0.85" stroke-miterlimit="2" x1="119.106" y1="163.023" x2="120.858" y2="149.002"/>
		<ellipse transform="matrix(-0.2412 -0.9705 0.9705 -0.2412 21.124 362.9977)" fill="none" stroke="#FFFFFF" stroke-width="0.85" stroke-miterlimit="2" cx="152.467" cy="173.241" rx="1.023" ry="0.803"/>
		<ellipse transform="matrix(-0.2417 -0.9703 0.9703 -0.2417 1.4684 314.2558)" fill="none" stroke="#FFFFFF" stroke-width="0.85" stroke-miterlimit="2" cx="123.519" cy="156.554" rx="1.022" ry="0.803"/>
		<path fill="none" stroke="#FFFFFF" stroke-width="0.85" stroke-miterlimit="2" d="M138.311,162.729
			c1.414,0.828,1.608,1.226,1.385,2.978c-0.22,1.709-0.736,2.223-2.262,1.478c-1.832-0.895-1.919-1.464-1.671-3.072
			C135.998,162.583,136.082,161.427,138.311,162.729z"/>
		<path fill="none" stroke="#FFFFFF" stroke-width="0.85" stroke-miterlimit="2" d="M191.202,263.838
			c0.859-1.887,0.944-4.803,0.859-5.918c-0.087-1.114,0.514-1.803,1.544-1.459c1.03,0.345,4.633,1.545,5.662,2.06
			c1.029,0.515,1.802,1.715,1.973,3.347c0.172,1.629-0.343,4.117-1.287,5.576"/>
		<path fill="none" stroke="#FFFFFF" stroke-width="0.85" stroke-miterlimit="2" d="M235.042,290.176
			c12.612,2.063,47.099,2.146,54.819,1.889c6.213-0.206,7.379,1.285,8.408,2.402c1.028,1.113,1.629,2.059,2.145,2.658
			c0.516,0.603,0.943,2.061-1.544,2.316c-2.488,0.258-36.375,1.801-48.472,0.258c-6.25-0.798-7.465-1.287-9.865-2.66
			c-2.403-1.371-5.487-3.514-6.435-4.459C232.554,291.036,232.742,289.801,235.042,290.176z"/>
		<path fill="none" stroke="#FFFFFF" stroke-width="0.85" stroke-miterlimit="2" d="M318.344,297.986
			c-16.128,2.228-58.509,6.69-93.684-1.373"/>
		<path fill="none" stroke="#FFFFFF" stroke-width="0.85" stroke-miterlimit="2" d="M224.661,293.35
			c-5.491-4.287-6.348-4.975-9.609-7.549c-3.26-2.574-11.495-5.319-15.099-6.689c-3.603-1.371-21.447-8.41-33.115-14.242
			c-11.668-5.834-43.239-22.646-56.794-31.058C96.49,225.405,64.246,206,51.364,193.834c-3.089-2.918-4.29-3.433-6.52-3.774"/>
		<path fill="none" stroke="#FFFFFF" stroke-width="0.85" stroke-miterlimit="2" d="M195.151,288.186
			c-0.97,0.773-2.331,2.977,0.842,4.467c3.173,1.489,9.065,3.885,13.144,5.113c4.079,1.232,27.389,8.482,30.95,8.936
			c3.562,0.453,5.114,0.391,6.345-0.26c1.23-0.646,3.496-1.939,3.496-1.939"/>
		<path fill="none" stroke="#FFFFFF" stroke-width="0.85" stroke-miterlimit="2" d="M241.964,306.25
			c-3.303-1.557-10.836-4.291-16.446-5.828c-7.316-2.008-21.691-6.41-26.352-8.289c-1.854-0.748-2.331-1.295-4.209-1.295"/>
		<path fill="none" stroke="#FFFFFF" stroke-width="0.85" stroke-miterlimit="2" d="M195.435,292.549
			c-2.402-1.029-7.206-3.088-7.206-3.088"/>
		<path fill="none" stroke="#FFFFFF" stroke-width="0.85" stroke-miterlimit="2" d="M191.317,291.178
			c-1.945,0.229-7.893-1.83-10.409-2.975c-2.517-1.143-19.675-9.609-21.734-10.981c-2.059-1.373-5.262-3.315-6.978-7.091"/>
		<polyline fill="none" stroke="#FFFFFF" stroke-width="0.85" stroke-miterlimit="2" points="152.54,271.961 144.313,267.612 
			142.587,266.7 		"/>
		<path fill="none" stroke="#FFFFFF" stroke-width="0.85" stroke-miterlimit="2" d="M108.729,245.538
			c1.145,2.289,3.432,5.033,6.406,6.979c2.974,1.943,19.447,11.439,21.848,12.697c2.403,1.259,5.948,2.746,7.55,2.746"/>
		<path fill="none" stroke="#FFFFFF" stroke-width="0.85" stroke-miterlimit="2" d="M101.866,242.676
			c-2.517-0.229-5.605-1.602-8.236-3.314c-2.631-1.717-18.073-12.355-20.133-14.07c-2.058-1.717-3.66-4.463-4.804-5.492
			c-1.143-1.027-2.745-2.516-5.833-4.574c0,0-14.871-12.696-17.731-19.787l0.458-0.803"/>
		<line fill="none" stroke="#FFFFFF" stroke-width="0.85" stroke-miterlimit="2" x1="99.006" y1="241.077" x2="109.644" y2="247.368"/>
		<line fill="none" stroke="#FFFFFF" stroke-width="0.85" stroke-miterlimit="2" x1="62.516" y1="212.194" x2="62.63" y2="214.768"/>
		<path fill="none" stroke="#FFFFFF" stroke-width="0.85" stroke-miterlimit="2" d="M72.468,223.004
			c3.089,2.287,15.671,10.979,16.93,11.779c1.258,0.801,1.944,0.801,2.744,0.801c0.802,0,1.717,0,2.861,0.688
			c1.143,0.687,11.782,6.978,11.782,6.978s1.258,0.914,1.601,1.603"/>
		<path fill="none" stroke="#FFFFFF" stroke-width="0.85" stroke-miterlimit="2" d="M111.245,247.94c0,0,18.531,11.096,20.018,11.896
			c1.488,0.801,2.517,0.688,3.204,0.688c0.686,0,2.173,0.113,4.004,1.029c1.83,0.916,12.353,6.977,12.353,6.977
			s0.686,0.688,1.029,1.146"/>
		<path fill="none" stroke="#FFFFFF" stroke-width="0.85" stroke-miterlimit="2" d="M155.285,272.875l20.818,10.523
			c0,0,1.717,0.803,2.975,0.688c1.258-0.114,2.402,0,3.66,0.57c1.258,0.573,7.436,3.434,7.436,3.434"/>
		<path fill="none" stroke="#FFFFFF" stroke-width="0.85" stroke-miterlimit="2" d="M192.575,287.86
			c-1.144,0.346-2.746,0.803-0.686,2.745"/>
		<path fill="none" stroke="#FFFFFF" stroke-width="0.85" stroke-miterlimit="2" d="M186.856,288.89
			c-1.487-0.455-4.118-2.517-5.262-3.888"/>
		<path fill="none" stroke="#FFFFFF" stroke-width="0.85" stroke-miterlimit="2" d="M181.938,287.975c0,0-3.089-2.402-4.461-4.118"/>
		<path fill="none" stroke="#FFFFFF" stroke-width="0.85" stroke-miterlimit="2" d="M141.673,265.786
			c-2.06-1.26-3.432-2.631-4.119-4.004"/>
		<path fill="none" stroke="#FFFFFF" stroke-width="0.85" stroke-miterlimit="2" d="M135.954,264.639
			c-1.831-1.37-2.859-2.629-3.203-3.889"/>
		<path fill="none" stroke="#FFFFFF" stroke-width="0.85" stroke-miterlimit="2" d="M98.548,240.847
			c-2.402-1.827-3.888-3.546-4.232-4.804"/>
		<path fill="none" stroke="#FFFFFF" stroke-width="0.85" stroke-miterlimit="2" d="M92.714,238.56c0,0-1.258-1.373-2.059-2.86"/>
		<path fill="none" stroke="#FFFFFF" stroke-width="0.85" stroke-miterlimit="2" d="M45.915,89.598l-0.686,0.086
			c0,0-6.681-7.078-7.109-13.512"/>
		<path fill="none" stroke="#FFFFFF" stroke-width="0.85" stroke-miterlimit="2" d="M49.99,37.294
			c0.976-0.813,1.853-1.54,3.763-1.458c1.91,0.08,6.747,0.488,7.845,0.406c1.098-0.081,2.926-0.203,5.081-2.479"/>
		<path fill="none" stroke="#FFFFFF" stroke-width="0.85" stroke-miterlimit="2" d="M41.354,45.359
			c1.202-1.03,2.975-2.06,6.978-1.775c4.003,0.289,5.376,0.459,7.378-0.055"/>
		<path fill="none" stroke="#FFFFFF" stroke-width="0.85" stroke-miterlimit="2" d="M58.627,44.1
			c-1.716,2.173-8.693,11.954-17.158,5.719"/>
		<path fill="none" stroke="#FFFFFF" stroke-width="0.85" stroke-miterlimit="2" d="M130.124,0.107
			c2.456,2.422,5.574,5.121,9.519,7.99c15.099,10.981,35.774,23.677,50.102,31.57c14.326,7.895,46.412,24.193,70.435,29.856
			l0.942-0.857c0,0,0,0.857,0.858,1.114c0.857,0.258,13.982,1.545,16.729,3.003"/>
		<line fill="none" stroke="#FFFFFF" stroke-width="0.85" stroke-miterlimit="2" x1="277.938" y1="74.584" x2="270.561" y2="71.152"/>
		<path fill="none" stroke="#FFFFFF" stroke-width="0.85" stroke-miterlimit="2" d="M263.352,67.036
			c4.721,0.598,23.938,0.085,30.799-1.03c6.865-1.116,8.15-1.802,8.15-1.802"/>
		<path fill="none" stroke="#FFFFFF" stroke-width="0.85" stroke-miterlimit="2" d="M290.121,65.063
			c2.83-4.29,11.152-12.87,17.243-17.931"/>
		<path fill="none" stroke="#FFFFFF" stroke-width="0.85" stroke-miterlimit="2" d="M261.122,68.666c0,0,3.151-2.629-0.171-3.432
			c-13.126-3.174-49.845-17.931-83.389-38.349c-17.839-10.859-30.659-19.403-39.304-26.148"/>
		<path fill="none" stroke="#FFFFFF" stroke-width="0.85" stroke-miterlimit="2" d="M305.477,103.067
			c8.235-17.845,17.156-34.315,20.417-39.635c3.262-5.32,10.812-15.1,23.681-23.679c9.406-6.271,39.809-25.195,61.249-38.206"/>
		<path fill="none" stroke="#FFFFFF" stroke-width="0.85" stroke-miterlimit="2" d="M307.822,33.881
			c0.368,1.614,4.184,4.623,5.725,5.65"/>
		<path fill="none" stroke="#FFFFFF" stroke-width="0.85" stroke-miterlimit="2" d="M242.677,227.122
			c12.354,4.807,28.482,6.52,47.698,3.432"/>
		<polyline fill="none" stroke="#FFFFFF" stroke-width="0.85" stroke-miterlimit="2" points="127.608,139.914 127.601,138.972 
			127.906,138.616 130.904,140.425 131.004,141.483 130.604,141.623 129.394,141.001 129.785,141.267 129.914,143.312 
			130.587,143.801 131.188,143.974 131.418,143.759 131.458,143.624 131.729,143.527 132.299,143.839 132.408,145.652 
			131.958,146.086 127.424,143.339 127.411,142.321 127.689,142.095 128.122,142.34 		"/>
		<line fill="none" stroke="#FFFFFF" stroke-width="0.85" stroke-miterlimit="2" x1="128.201" y1="142.735" x2="128.201" y2="142.722"/>
		<polyline fill="none" stroke="#FFFFFF" stroke-width="0.85" stroke-miterlimit="2" points="128.201,142.722 128.063,140.198 
			127.608,139.914 		"/>
		<line fill="none" stroke="#FFFFFF" stroke-width="0.85" stroke-miterlimit="2" x1="131.452" y1="143.721" x2="131.213" y2="144.033"/>
		<path fill="none" stroke="#FFFFFF" stroke-width="0.85" stroke-miterlimit="2" d="M112.96,133.991
			c0.383-0.155,0.672-0.491,0.802-0.927c0.046-0.186,0.069-0.379,0.069-0.577c0-0.119-0.009-0.244-0.027-0.366
			c-0.047-0.336-0.142-0.668-0.281-0.989v-0.001c-0.163-0.378-0.368-0.737-0.607-1.07c-0.242-0.329-0.516-0.63-0.817-0.893
			c-0.252-0.219-0.531-0.393-0.822-0.523c-0.162-0.073-0.329-0.124-0.498-0.147c-0.117-0.018-0.235-0.029-0.349-0.023
			c-0.315,0.035-0.609,0.146-0.862,0.331"/>
		<path fill="none" stroke="#FFFFFF" stroke-width="0.85" stroke-miterlimit="2" d="M109.55,128.833
			c-0.02,0.018-0.042,0.034-0.062,0.053c-0.161,0.137-0.28,0.334-0.335,0.557c-0.047,0.186-0.072,0.378-0.072,0.574
			c0,0.121,0.01,0.243,0.028,0.365c0.048,0.34,0.142,0.676,0.28,0.994v-0.002c0.164,0.38,0.369,0.74,0.61,1.072
			c0.241,0.327,0.513,0.631,0.816,0.89c0.251,0.217,0.529,0.398,0.821,0.525c0.164,0.075,0.331,0.124,0.499,0.148
			c0.117,0.019,0.234,0.027,0.35,0.023c0.214-0.009,0.415-0.089,0.577-0.228"/>
		<polyline fill="none" stroke="#FFFFFF" stroke-width="0.85" stroke-miterlimit="2" points="93.451,120.863 93.464,120.875 
			94.722,119.456 94.615,119.271 94.232,118.946 94.292,118.168 94.65,117.969 96.451,119.414 96.321,120.292 96.066,120.404 
			95.76,120.172 93.998,122.263 93.831,122.361 92.53,121.303 91.353,116.716 90.694,116.216 90.727,115.376 90.983,115.113 
			93.832,117.279 93.858,118.326 93.573,118.471 92.788,117.87 		"/>
		<line fill="none" stroke="#FFFFFF" stroke-width="0.85" stroke-miterlimit="2" x1="93.168" y1="118.285" x2="93.544" y2="120.5"/>
		<path fill="none" stroke="#FFFFFF" stroke-width="0.85" stroke-miterlimit="2" d="M111.515,132.863
			c0.111-0.016,0.211-0.065,0.292-0.148c0.1-0.107,0.178-0.242,0.225-0.392c0.049-0.16,0.075-0.334,0.076-0.508v-0.011
			c0-0.205-0.025-0.415-0.072-0.621c-0.047-0.21-0.121-0.416-0.213-0.612c-0.079-0.165-0.179-0.319-0.296-0.458
			c-0.113-0.128-0.245-0.234-0.39-0.305c-0.058-0.032-0.121-0.052-0.182-0.06c-0.037-0.008-0.073-0.009-0.11-0.009"/>
		<path fill="none" stroke="#FFFFFF" stroke-width="0.85" stroke-miterlimit="2" d="M111.004,129.754
			c-0.046,0.029-0.089,0.06-0.126,0.099c-0.103,0.105-0.179,0.24-0.226,0.395c-0.05,0.158-0.075,0.329-0.077,0.505v0.009
			c0,0.21,0.025,0.416,0.071,0.623c0.048,0.208,0.121,0.417,0.214,0.612c0.079,0.166,0.18,0.318,0.296,0.455
			c0.113,0.129,0.246,0.238,0.389,0.31c0.043,0.02,0.089,0.038,0.134,0.049"/>
		<path fill="none" stroke="#FFFFFF" stroke-width="0.85" stroke-miterlimit="2" d="M110.844,129.739L110.844,129.739
			c-0.017,0.004-0.029,0.004-0.044,0.005"/>
		<path fill="none" stroke="#FFFFFF" stroke-width="0.85" stroke-miterlimit="2" d="M170.602,165.945
			c0.431-0.157,0.756-0.494,0.9-0.928c0.054-0.185,0.079-0.381,0.079-0.579c0-0.119-0.009-0.24-0.028-0.363
			c-0.055-0.337-0.162-0.673-0.317-0.992c-0.183-0.374-0.412-0.737-0.683-1.067c-0.271-0.332-0.579-0.632-0.918-0.891
			c-0.285-0.217-0.597-0.398-0.924-0.526c-0.183-0.076-0.372-0.123-0.561-0.151c-0.131-0.019-0.263-0.025-0.393-0.019
			c-0.36,0.035-0.694,0.156-0.978,0.347"/>
		<path fill="none" stroke="#FFFFFF" stroke-width="0.85" stroke-miterlimit="2" d="M166.768,160.787
			c-0.022,0.015-0.047,0.036-0.07,0.049c-0.18,0.142-0.312,0.336-0.378,0.566c-0.052,0.181-0.078,0.372-0.078,0.568
			c0,0.124,0.008,0.245,0.028,0.366c0.057,0.339,0.163,0.675,0.319,0.994c0.182,0.379,0.412,0.74,0.682,1.07
			c0.271,0.33,0.58,0.628,0.92,0.89c0.283,0.217,0.596,0.395,0.921,0.523c0.185,0.077,0.371,0.125,0.562,0.154
			c0.132,0.016,0.262,0.021,0.391,0.021c0.245-0.013,0.47-0.092,0.653-0.23"/>
		<path fill="none" stroke="#FFFFFF" stroke-width="0.85" stroke-miterlimit="2" d="M168.977,164.817
			c0.125-0.015,0.239-0.063,0.325-0.146c0.116-0.107,0.203-0.244,0.256-0.394c0.056-0.162,0.085-0.332,0.085-0.507v-0.013
			c0-0.204-0.027-0.413-0.081-0.621c-0.052-0.209-0.134-0.415-0.24-0.611c-0.087-0.166-0.201-0.319-0.331-0.455
			c-0.126-0.13-0.275-0.236-0.437-0.311c-0.066-0.028-0.136-0.048-0.206-0.059c-0.04-0.007-0.082-0.009-0.123-0.005"/>
		<path fill="none" stroke="#FFFFFF" stroke-width="0.85" stroke-miterlimit="2" d="M168.403,161.71
			c-0.052,0.023-0.1,0.057-0.142,0.093c-0.115,0.111-0.2,0.245-0.254,0.396c-0.056,0.159-0.085,0.332-0.085,0.511v0.006
			c0,0.209,0.026,0.415,0.08,0.624c0.054,0.208,0.134,0.413,0.241,0.612h-0.001c0.089,0.164,0.202,0.318,0.333,0.451
			c0.125,0.135,0.274,0.237,0.435,0.311h0.002c0.049,0.021,0.098,0.041,0.151,0.052"/>
		<path fill="none" stroke="#FFFFFF" stroke-width="0.85" stroke-miterlimit="2" d="M168.223,161.693l0.002,0.002
			c-0.019,0-0.034,0-0.05,0.005"/>
		<line fill="none" stroke="#FFFFFF" stroke-width="0.85" stroke-miterlimit="2" x1="147.54" y1="151.1" x2="148.545" y2="153.994"/>
		<line fill="none" stroke="#FFFFFF" stroke-width="0.85" stroke-miterlimit="2" x1="148.545" y1="153.994" x2="148.72" y2="154.135"/>
		<polyline fill="none" stroke="#FFFFFF" stroke-width="0.85" stroke-miterlimit="2" points="147.622,151.161 148.681,151.672 
			149.042,151.549 148.945,150.495 145.453,148.525 145.167,148.806 145.179,149.657 145.988,150.112 147.662,154.645 
			149.26,155.611 149.452,155.496 151.399,153.264 151.817,153.472 152.279,153.428 152.339,152.44 149.889,151.076 
			149.542,151.355 149.519,152.144 149.992,152.444 150.13,152.625 148.738,154.14 148.721,154.134 		"/>
	</g>
</svg>
