<?xml version="1.0" encoding="utf-8"?>
<svg version="1.1" xmlns="http://www.w3.org/2000/svg" xmlns:xlink="http://www.w3.org/1999/xlink" width="475.469px" height="344.941px" viewBox="0 0 475.469 344.941" xml:space="preserve">
	<g>
		<path fill="none" stroke="#FFFFFF" stroke-width="0.85" d="M274.333,215.384v-0.009c5.547-0.254,11.071-0.925,16.521-2.018"/>
		<path fill="none" stroke="#FFFFFF" stroke-width="0.85" d="M466.914,49.408c-4.755,8.529-9.48,17.076-14.18,25.64l-1.324,2.292"/>
		<path fill="none" stroke="#FFFFFF" stroke-width="0.85" d="M243.428,292.692l10.684-0.279c3.934-0.107,7.865-0.297,11.789-0.572
			c0.066-0.005,0.136-0.005,0.201-0.005c0.348,0,0.688,0.06,1.014,0.182c0.209,0.082,0.421,0.141,0.64,0.184
			c0.218,0.251,0.335,0.571,0.335,0.903c0,0.273-0.076,0.537-0.226,0.766l-0.644,1.033c-1.297,2.159-2.88,4.136-4.701,5.87
			c-2.227,2.045-5.021,3.364-8.016,3.776c-4.911,0.312-9.831,0.467-14.75,0.467c-4.531,0-9.063-0.132-13.588-0.396h-0.134
			c-0.95,0-1.843-0.447-2.407-1.211c-0.274-0.26-0.43-0.615-0.43-0.994c0-0.023,0.003-0.048,0.003-0.074l1.256-0.017
			c1.166-0.102,2.33-0.244,3.486-0.438c0.499-0.089,0.891-0.472,0.991-0.968c0.014-0.053,0.02-0.104,0.02-0.158
			c0-0.271-0.181-0.515-0.445-0.59c-0.726-0.289-1.444-0.586-2.162-0.89c-0.229-0.133-0.446-0.285-0.642-0.46
			c-0.024-0.063-0.034-0.124-0.034-0.19c0-0.161,0.074-0.316,0.201-0.419l1.042-1.169l1.377-0.074
			c1.439-0.031,2.87-0.192,4.279-0.477c0.519-0.026,1-0.283,1.314-0.702c0.099-0.136,0.151-0.299,0.151-0.469
			c0-0.034-0.004-0.064-0.007-0.1c-0.056-0.266-0.21-0.5-0.433-0.656c-0.315-0.199-0.663-0.34-1.026-0.414
			c-0.351-0.113-0.699-0.229-1.049-0.337c-0.108-0.073-0.17-0.195-0.17-0.331c0-0.084,0.026-0.17,0.08-0.238
			c0.475-0.176,0.966-0.3,1.466-0.364c0.577-0.107,1.158-0.162,1.746-0.167h-0.002c2.85-0.012,5.7-0.021,8.548-0.021h0.244"/>
		<path fill="none" stroke="#FFFFFF" stroke-width="0.85" d="M226.911,297.042c-0.576,0.04-1.151,0.06-1.731,0.06
			c-0.687,0-1.376-0.031-2.06-0.086c-6.693-0.257-13.375-0.699-20.042-1.328c-15.258-1.627-30.42-4.063-45.419-7.309
			c-1.047-0.297-2.062-0.709-3.019-1.227l-1.366-0.779c0,0-4.434-2.246-8.217-3.984c-3.781-1.736-25.521-11.604-51.488-26.701
			c-25.965-15.094-47.503-30.635-50.925-32.75c0,0-2.716-1.769-4.228-2.674c-1.554-0.937-2.543-1.762-3.32-2.82
			c-1.107-1.509-7.449-13.183-9.151-17.738"/>
		<path fill="none" stroke="#FFFFFF" stroke-width="0.85" d="M151.415,291.145c-2.692-1.641-6.618-2.977-8.53-3.854
			c-3.783-1.739-20.701-9.021-46.667-24.116c-25.966-15.099-47.504-30.638-50.926-32.75c0,0-2.716-1.773-4.227-2.679
			c-1.555-0.935-2.544-1.761-3.32-2.818c-1.108-1.511-12.009-17.246-15.431-32.342"/>
		<path fill="none" stroke="#FFFFFF" stroke-width="0.85" d="M151.415,291.145L151.415,291.145l1.36,0.792
			c1.547,0.824,3.198,1.441,4.906,1.827c14.333,3.229,28.849,5.596,43.466,7.08h-0.003c7.328,0.814,14.685,1.31,22.054,1.496"/>
		<path fill="none" stroke="#FFFFFF" stroke-width="0.85" d="M16.323,171.828l-1.09-6.188c-1.772-9.736-2.664-19.609-2.664-29.503
			c0-3.266,0.097-6.526,0.289-9.781c-0.038-0.833-0.056-1.664-0.056-2.495c0-9.053,2.245-17.957,6.537-25.925
			c0,0,7.067-27.532,21.024-40.415C50.159,41.688,64.592,28.397,77.937,17.4C82.686,13.486,90.16,7.453,98.615,0.71"/>
		<path fill="none" stroke="#FFFFFF" stroke-width="0.85" d="M36.735,123.942c-0.15,0.146-0.253,0.352-0.253,0.352
			c-1.087,5.337-2.072,10.688-2.958,16.063"/>
		<path fill="none" stroke="#FFFFFF" stroke-width="0.85" d="M19.848,97.115c-0.625,2.372-1.046,4.798-1.26,7.247
			c-0.054,1.135-0.085,2.267-0.085,3.404c0,3.038,0.209,6.076,0.632,9.088c2.05,14.252,6.707,28.002,13.732,40.566"/>
		<path fill="none" stroke="#FFFFFF" stroke-width="0.85" d="M13.604,138.289c1.006,7.633,2.546,15.341,3.653,19.043
			c3.308,11.028,5.974,21.417,8.685,32.605c1.337,5.513,4.293,14.962,6.414,20.178"/>
		<path fill="none" stroke="#FFFFFF" stroke-width="0.85" d="M33.523,140.356l-0.626,19.113c-0.15,4.449-0.412,8.896-0.786,13.33"/>
		<path fill="none" stroke="#FFFFFF" stroke-width="0.85" d="M200.682,219.84c0.302-0.127,0.502-0.419,0.502-0.752
			c0-0.304-0.174-0.589-0.449-0.723l-13.21-7.129c-47.631-22.895-93.64-49.029-137.695-78.213l-3.587-2.423
			c-2.999-2.029-5.894-4.207-8.667-6.539c-0.127-0.107-0.287-0.168-0.439-0.24c-0.145-0.07-0.288,0.008-0.402,0.12"/>
		<path fill="none" stroke="#FFFFFF" stroke-width="0.85" d="M34.885,143.846c-0.225,0.199-0.397,0.458-0.49,0.756l-0.518,5.261
			c0.14,7.211,0.667,14.411,1.57,21.565c0.954,7.026,3.97,13.613,8.666,18.924c8.255,8.818,17.532,16.616,27.637,23.234
			c12.865,8.167,26.147,15.656,39.795,22.44"/>
		<path fill="none" stroke="#FFFFFF" stroke-width="0.85" d="M170.382,221.296l-6.996-3.394
			c-44.842-20.688-87.597-45.615-127.689-74.444c-0.308,0.052-0.587,0.188-0.812,0.388"/>
		<path fill="none" stroke="#FFFFFF" stroke-width="0.85" d="M16.323,171.828l0.404,6.188c0.186,2.923,0.317,5.856,0.398,8.779
			c0.111,4.262,0.611,8.507,1.497,12.677c1.811,10.354,5.252,20.357,10.185,29.642"/>
		<path fill="none" stroke="#FFFFFF" stroke-width="0.85" d="M32.503,210.555l-1.796-2.796
			c-7.046-10.949-11.928-23.148-14.385-35.933"/>
		<path fill="none" stroke="#FFFFFF" stroke-width="0.85" d="M19.021,178.618l-0.5-1.601c-0.53-1.3-0.802-2.689-0.802-4.099
			c0-0.094,0-0.197,0.004-0.295c0.013-0.513,0.023-1.027,0.023-1.546c0-0.514-0.01-1.024-0.023-1.545v-0.016
			c0-0.222,0.184-0.406,0.407-0.406c0.225,0,0.408,0.185,0.408,0.406c0,0.039-0.004,0.079-0.017,0.119
			c1.281,3.255,2.253,6.633,2.897,10.077c0.251,1.518,0.419,3.05,0.501,4.59c-0.077,0.57-0.174,1.138-0.302,1.695
			C20.82,183.513,19.95,181.055,19.021,178.618"/>
		<path fill="none" stroke="#FFFFFF" stroke-width="0.85" d="M32.697,210.646l4.658,2.988c3.806,2.442,7.542,4.987,11.203,7.636
			c6.572,4.748,13.37,9.165,20.381,13.24v-0.005c10.115,5.886,20.203,11.823,30.257,17.823"/>
		<path fill="none" stroke="#FFFFFF" stroke-width="0.85" d="M17.383,185.638l1.222,5.601c2.715,11.333,6.999,22.229,12.737,32.373
			c3.636,6.338,8.469,11.911,14.222,16.415c4.293,3.481,8.716,6.798,13.264,9.943"/>
		<path fill="none" stroke="#FFFFFF" stroke-width="0.85" d="M51.107,247.643L51.107,247.643c-2.357-1.653-4.636-3.419-6.825-5.294
			c-1.425-1.188-3.045-2.119-4.789-2.749l-2.117-1.099c-2.362-1.062-4.382-2.763-5.829-4.908c-0.987-1.451-1.9-2.945-2.74-4.479"/>
		<path fill="none" stroke="#FFFFFF" stroke-width="0.85" d="M51.761,246.709c-2.333-1.633-4.582-3.379-6.744-5.234
			c-1.511-1.257-3.229-2.245-5.074-2.923l-2.668-0.879c-2.296-0.716-4.302-2.146-5.728-4.08"/>
		<path fill="none" stroke="#FFFFFF" stroke-width="0.85" d="M200.353,219.433l-8.422,3.6c-6.349,2.476-12.037,6.396-16.614,11.451
			l-7.064,10.113c-0.481,0.592-0.742,1.322-0.742,2.083c0,1.504,1.022,2.816,2.481,3.188c22.614,1.681,45.285,2.521,67.957,2.521
			c5.672,0,11.34-0.05,17.011-0.155"/>
		<path fill="none" stroke="#FFFFFF" stroke-width="0.85" d="M254.959,252.233l9.355-0.573c11.176-0.994,24.732-5.925,35.334-12.215"
			/>
		<path fill="none" stroke="#FFFFFF" stroke-width="0.85" d="M213.515,290.789L213.515,290.789c3.302-2.861,7.265-2.889,11.256-3.465
			c2.018,0.043,4.241-0.095,6.26-0.095c20.584,0,39.901-2.037,59.964-6.65"/>
		<path fill="none" stroke="#FFFFFF" stroke-width="0.85" d="M99.196,252.329l27.993,14.794c5.74,3.03,11.534,5.96,17.38,8.774
			c3.152,1.522,6.274,3.115,9.358,4.774c1.835,0.989,3.756,1.822,5.731,2.479c17.684,4.156,35.71,6.709,53.857,7.637
			c0,0,43.652,3.515,67.438-1.467l4.473-1.018"/>
		<path fill="none" stroke="#FFFFFF" stroke-width="0.85" d="M155.836,278.381l5.54-8.78c1.387-2.203,3.47-3.884,5.919-4.77
			c3.582-1.309,7.37-1.974,11.184-1.974c0.662,0,1.329,0.021,1.995,0.064c9.78,0.599,19.58,0.894,29.38,0.894
			c28.897,0,57.734-2.601,86.166-7.768c1.008-0.182,2.03-0.275,3.059-0.275c1.021,0,2.045,0.095,3.053,0.275
			c1.206,0.221,2.083,1.262,2.102,2.483c0,0.055,0.002,0.106,0.002,0.159c0,1.729-0.393,3.437-1.148,4.992
			c-7.184,15.554-15.693,29.787-27.242,42.438c-3.324,3.383-8.882,5.426-13.628,5.466c-6.055,0.3-12.112,0.45-18.173,0.45
			c-25.796,0-51.516-2.71-76.746-8.083h-0.002c-10.676-2.313-21.057-5.837-30.937-10.499"/>
		<path fill="none" stroke="#FFFFFF" stroke-width="0.85" d="M51.107,247.643l25.555,17.228
			c22.674,14.39,46.479,26.912,71.182,37.436c1.981,0.929,3.919,1.961,5.8,3.086c4.751,3.618,10.391,5.896,16.326,6.582
			c24.876,4.176,49.984,6.823,75.186,7.933c6.223,0.585,14.26,0.297,20.513,0.297c21.399,0,40.366-2.83,60.694-9.518
			c1.722-0.472,3.223-1.54,4.226-3.017c0.94-1.847,1.79-3.729,2.55-5.656l3.372-8.619c-0.146-0.823-0.219-1.653-0.219-2.484
			c0-1.206,0.154-2.41,0.454-3.577c4.816-22.07,13.941-42.97,26.86-61.501c0.188-0.144,0.293-0.37,0.293-0.604l-0.203-0.503
			l1.005-0.601c0,0,16.355-22.728,36.501-35.094c19.457-11.942,30.466-15.47,41.599-14.355c9.395,0.936,13.956,6.438,15.703,8.317"
			/>
		<path fill="none" stroke="#FFFFFF" stroke-width="0.85" d="M51.744,246.698l25.543,17.223
			c22.622,14.352,46.373,26.843,71.02,37.347c2.044,0.957,4.042,2.017,5.978,3.179c4.411,3.953,9.828,6.623,15.652,7.703"/>
		<path fill="none" stroke="#FFFFFF" stroke-width="0.85" d="M303.111,256.449c-0.182,1.052-0.514,2.073-0.98,3.035
			c-6.188,14.46-15.77,29.539-25.434,41.946c-0.461,0.591-0.94,1.168-1.413,1.75c-4.104,4.108-9.593,6.549-15.398,6.836
			c-2.758,0.059-5.515,0.081-8.272,0.081c-28.153,0-56.236-2.814-83.825-8.416c-8.417-1.813-16.647-4.403-24.579-7.748"/>
		<path fill="none" stroke="#FFFFFF" stroke-width="0.85" d="M336.51,293.647l-11.078,3.819c-16.08,5.545-32.552,9.879-49.275,12.979
			"/>
		<path fill="none" stroke="#FFFFFF" stroke-width="0.85" d="M358.305,228.314c-11.771,18.702-20.331,39.247-25.323,60.776
			c-0.303,1.166-0.454,2.369-0.454,3.575c0,0.728,0.055,1.445,0.162,2.159"/>
		<path fill="none" stroke="#FFFFFF" stroke-width="0.85" d="M111.544,236.028c10.834,5.839,22.593,9.783,34.759,11.658
			c0.739,0.113,1.485,0.173,2.232,0.173c2.502,0,4.963-0.65,7.14-1.896"/>
		<path fill="none" stroke="#FFFFFF" stroke-width="0.85" d="M155.675,245.962c6.918-5.589,12.412-12.752,16.018-20.886
			c0.075-0.294,0.113-0.597,0.113-0.9c0-1.132-0.527-2.197-1.424-2.88"/>
		<path fill="none" stroke="#FFFFFF" stroke-width="0.85" d="M184.118,246.58c-0.917-0.282-1.541-1.132-1.541-2.09
			c0-0.275,0.05-0.554,0.153-0.808c1.705-4.171,9.088-18.994,17.942-23.663"/>
		<line fill="none" stroke="#FFFFFF" stroke-width="0.85" x1="319.948" y1="238.221" x2="319.978" y2="238.409"/>
		<line fill="none" stroke="#FFFFFF" stroke-width="0.85" x1="343.688" y1="231.263" x2="343.734" y2="231.565"/>
		<path fill="none" stroke="#FFFFFF" stroke-width="0.85" d="M363.606,225.144l-2.85,1.398c-0.688,0.413-1.431,0.728-2.205,0.931
			l0.013-0.005c-14.792,4.237-29.968,8.607-44.755,12.872l0.016-0.005c-1.631,0.457-3.321,0.693-5.017,0.693
			c-2.879,0-5.545-0.896-8.117-2.184"/>
		<path fill="none" stroke="#FFFFFF" stroke-width="0.85" d="M58.828,249.968c24.511,16.753,50.456,31.308,77.528,43.492"/>
		<path fill="none" stroke="#FFFFFF" stroke-width="0.85" d="M20.951,188.59l2.545,9.567c2.16,8.113,5.417,15.889,9.681,23.111
			c3.932,6.668,9.039,12.567,15.075,17.413c3.389,2.892,6.966,5.452,10.634,7.979c26.576,18.282,54.95,33.937,84.322,47.271"/>
		<path fill="none" stroke="#FFFFFF" stroke-width="0.85" d="M185.428,212.414l-7.46,3.479c-2.615,1.223-5.464,1.854-8.35,1.854
			c-0.699,0-1.399-0.038-2.095-0.115"/>
		<path fill="none" stroke="#FFFFFF" stroke-width="0.85" d="M101.119,188.246c21.511,12.254,43.463,23.701,65.814,34.31
			c0.887,0.42,1.452,1.322,1.452,2.313c0,0.256-0.038,0.512-0.113,0.757"/>
		<path fill="none" stroke="#FFFFFF" stroke-width="0.85" d="M148.618,245.623c1.422-0.122,2.827-0.428,4.175-0.908
			c2.86-1.472,7.439-5.992,7.439-5.992c3.331-4.232,7.812-11.065,8.07-13.39"/>
		<path fill="none" stroke="#FFFFFF" stroke-width="0.85" d="M76.096,213.563l15.442,8.921c6.087,3.516,12.235,6.93,18.439,10.235
			c4.598,2.454,9.368,4.571,14.271,6.338c6.038,2.144,11.583,3.948,17.877,5.136l0.775,0.13c1.74,0.289,2.806,0.381,4.305,0.381
			c1.778,0,3.545-0.303,5.221-0.894c1.958-0.892,3.677-2.23,5.02-3.912"/>
		<path fill="none" stroke="#FFFFFF" stroke-width="0.85" d="M101.119,188.246l-6.017-3.493
			c-20.653-11.239-39.831-23.528-58.418-37.932"/>
		<path fill="none" stroke="#FFFFFF" stroke-width="0.85" d="M35.149,147.395l0.06-0.264c0.094-0.358,0.419-0.61,0.79-0.61
			c0.107,0,0.21,0.02,0.306,0.061c0.133,0.066,0.261,0.148,0.379,0.239"/>
		<path fill="none" stroke="#FFFFFF" stroke-width="0.85" d="M36.52,147.303c-0.511,3.192,0.007,8.172,0.089,10.06v-0.001
			l0.206,3.713c0.135,1.991,0.307,3.98,0.52,5.965l0.413,3.526c0.211,1.636,0.45,3.265,0.711,4.893v-0.003
			c0.155,0.813,0.348,1.62,0.574,2.412"/>
		<path fill="none" stroke="#FFFFFF" stroke-width="0.85" d="M39.033,177.866c0.278,1.488,2.083,5.313,5.07,9.396
			c2.321,2.892,4.333,4.823,5.91,6.294l0.071,0.139l-0.054-0.091l11.538,10.143c2.005,1.443,4.028,2.865,6.07,4.26
			c2.749,1.959,5.569,3.813,8.458,5.558"/>
		<path fill="none" stroke="#FFFFFF" stroke-width="0.85" d="M81.448,203.416c0.435,1.832,1.086,3.592,1.935,5.268
			c0.869,1.725,1.934,3.338,3.188,4.812c1.018,1.201,2.206,2.237,3.532,3.106c1.241,0.811,2.639,1.338,4.111,1.558
			c0.253,0.048,0.505,0.06,0.757,0.06c0.785,0,1.556-0.18,2.255-0.544c0.928-0.457,1.688-1.204,2.176-2.133
			c0.265-0.506,0.489-1.025,0.668-1.568"/>
		<path fill="none" stroke="#FFFFFF" stroke-width="0.85" d="M84.365,192.206c-0.927,0.472-1.688,1.219-2.176,2.146
			c-0.288,0.541-0.523,1.123-0.717,1.712"/>
		<path fill="none" stroke="#FFFFFF" stroke-width="0.85" d="M92.417,197.229c-0.465-0.412-0.959-0.785-1.481-1.131
			c-0.983-0.639-2.091-1.061-3.248-1.229c-0.2-0.033-0.399-0.049-0.597-0.049c-0.616,0-1.23,0.146-1.784,0.423"/>
		<path fill="none" stroke="#FFFFFF" stroke-width="0.85" d="M97.672,206.128c-0.342-1.314-0.826-2.581-1.434-3.773
			c-0.687-1.361-1.53-2.641-2.519-3.798c-0.4-0.476-0.836-0.919-1.302-1.328"/>
		<path fill="none" stroke="#FFFFFF" stroke-width="0.85" d="M83.154,204.694c0.345,1.229,0.803,2.424,1.375,3.567
			c0.688,1.362,1.536,2.627,2.519,3.798c0.802,0.94,1.742,1.771,2.79,2.444c0.976,0.64,2.086,1.061,3.243,1.229
			c0.204,0.036,0.398,0.051,0.602,0.051c0.615,0,1.23-0.146,1.784-0.422c0.729-0.374,1.332-0.965,1.711-1.688
			c0.133-0.241,0.247-0.495,0.351-0.75"/>
		<path fill="none" stroke="#FFFFFF" stroke-width="0.85" d="M85.306,195.242c-0.734,0.376-1.338,0.965-1.718,1.688
			c-0.144,0.279-0.27,0.566-0.392,0.856"/>
		<path fill="none" stroke="#FFFFFF" stroke-width="0.85" d="M92.731,197.509c-0.32-0.252-0.651-0.496-0.988-0.724
			c-0.863-0.557-1.833-0.928-2.844-1.072c-0.169-0.036-0.338-0.048-0.52-0.048c-0.542,0-1.072,0.132-1.554,0.373"/>
		<path fill="none" stroke="#FFFFFF" stroke-width="0.85" d="M85.715,206.463c0.134,0.326,0.278,0.628,0.435,0.94
			c0.597,1.184,1.337,2.288,2.194,3.305c0.704,0.831,1.524,1.554,2.434,2.143c0.856,0.56,1.826,0.931,2.838,1.088
			c0.177,0.023,0.345,0.033,0.52,0.033c0.541,0,1.078-0.132,1.56-0.371c0.458-0.228,0.862-0.566,1.175-0.977"/>
		<path fill="none" stroke="#FFFFFF" stroke-width="0.85" d="M85.325,197.509L85.325,197.509c-0.055,0.109-0.116,0.229-0.163,0.337"
			/>
		<path fill="none" stroke="#FFFFFF" stroke-width="0.85" d="M86.825,196.039c-0.64,0.326-1.17,0.843-1.5,1.471"/>
		<path fill="none" stroke="#FFFFFF" stroke-width="0.85" d="M101.62,213.792c0.247-0.821,0.405-1.662,0.453-2.52
			c0.024-0.338,0.029-0.673,0.029-1.013c0-0.906-0.066-1.796-0.21-2.687"/>
		<path fill="none" stroke="#FFFFFF" stroke-width="0.85" d="M81.715,195.39l-0.892,0.191c0.228,0.647,0.608,1.242,1.102,1.712
			c5.689,4.564,12.12,8.11,19.014,10.496c0.32-0.058,0.639-0.131,0.953-0.215"/>
		<path fill="none" stroke="#FFFFFF" stroke-width="0.85" d="M101.62,213.792c-0.428,0.12-0.855,0.218-1.289,0.292
			c-6.774-2.652-13.138-6.259-18.906-10.682c-0.205-0.266-0.458-0.482-0.748-0.65c-0.24-1.169-0.373-2.35-0.373-3.544
			c0-0.337,0.011-0.673,0.036-1.014c0.049-0.879,0.217-1.758,0.483-2.613"/>
		<path fill="none" stroke="#FFFFFF" stroke-width="0.85" d="M100.294,207.129c-0.031-0.17-0.071-0.34-0.115-0.508
			c-0.26-1.12-0.602-2.221-1.018-3.29"/>
		<path fill="none" stroke="#FFFFFF" stroke-width="0.85" d="M96.722,198.654c-0.526-0.782-1.092-1.539-1.702-2.254
			c-1.017-1.206-2.204-2.239-3.531-3.106c-1.241-0.811-2.644-1.341-4.11-1.558c-0.254-0.048-0.506-0.06-0.759-0.06
			c-0.783,0-1.555,0.18-2.254,0.529"/>
		<polyline fill="none" stroke="#FFFFFF" stroke-width="0.85" points="83.196,197.787 85.293,197.846 96.881,204.639 		"/>
		<line fill="none" stroke="#FFFFFF" stroke-width="0.85" x1="101.289" y1="207.309" x2="101.892" y2="207.575"/>
		<path fill="none" stroke="#FFFFFF" stroke-width="0.85" d="M97.54,198.112c-0.506-0.746-1.048-1.458-1.633-2.156
			c-1.018-1.194-2.211-2.239-3.532-3.099c-1.247-0.807-2.646-1.35-4.116-1.567c-0.247-0.036-0.493-0.061-0.747-0.061
			c-0.788,0-1.559,0.18-2.265,0.543"/>
		<path fill="none" stroke="#FFFFFF" stroke-width="0.85" d="M101.289,207.309c-0.06-0.389-0.133-0.76-0.217-1.133
			c-0.264-1.099-0.602-2.184-1.012-3.244"/>
		<path fill="none" stroke="#FFFFFF" stroke-width="0.85" d="M97.637,217.446c0.162-0.062,0.325-0.134,0.475-0.205
			c0.929-0.47,1.689-1.217,2.177-2.146v0.012c0.186-0.36,0.355-0.734,0.499-1.107"/>
		<path fill="none" stroke="#FFFFFF" stroke-width="0.85" d="M85.246,191.772c-0.139,0.072-0.748,0.351-0.881,0.435"/>
		<polyline fill="none" stroke="#FFFFFF" stroke-width="0.85" points="94.768,199.908 97.731,198.232 96.684,196.797 96.792,195.474 
			102.434,198.57 102.041,205.139 100.771,204.249 100.107,202.487 97.071,204.249 		"/>
		<path fill="none" stroke="#FFFFFF" stroke-width="0.85" d="M80.921,203.358l-19.988-4.727l-5.307-1.563
			c-0.479-0.146-0.912-0.408-1.259-0.756c-0.223-0.228-0.359-0.528-0.379-0.853"/>
		<path fill="none" stroke="#FFFFFF" stroke-width="0.85" d="M80.007,200.076l-19.388-3.816l-5.333-1.156
			c-0.094-0.018-0.187-0.023-0.279-0.018c-0.393,0.023-0.742,0.274-0.891,0.654"/>
		<path fill="none" stroke="#FFFFFF" stroke-width="0.85" d="M102.952,207.436l18.157,1.979c3.822,0.344,7.631,0.677,11.454,1.027"/>
		<polyline fill="none" stroke="#FFFFFF" stroke-width="0.85" points="149.733,296.25 149.733,296.25 150.525,295.285 
			154.754,293.084 		"/>
		<path fill="none" stroke="#FFFFFF" stroke-width="0.85" d="M158.763,283.199l-3.984,1.793l-0.968,0.551
			c-0.304,0.172-0.504,0.251-0.537,0.604"/>
		<path fill="none" stroke="#FFFFFF" stroke-width="0.85" d="M156.744,288.087l-3.815,1.688l-0.972,0.546
			c-0.303,0.171-0.506,0.477-0.543,0.823"/>
		<path fill="none" stroke="#FFFFFF" stroke-width="0.85" d="M438.676,79.926c-0.004-0.142-0.119-0.363-0.707-0.532"/>
		<path fill="none" stroke="#FFFFFF" stroke-width="0.85" d="M201.278,218.684c0,0,0.181,0.608,1.696,0.124
			c1.518-0.484,8.492-2.004,14.193-2.063c5.698-0.062,33.472,0,42.81-0.304c9.34-0.304,25.772-2.063,31.108-3.153
			c5.337-1.091,6.187-1.881,10.128-4.488s90.192-60.833,104.419-69.958c14.221-9.125,22.675-13.017,25.629-27.106
			c2.952-14.09,2.685-15.567,3.623-18.922c0.94-3.354,3.756-12.749,3.756-12.749s0.038-0.056,0.036-0.139"/>
		<path fill="none" stroke="#FFFFFF" stroke-width="0.85" d="M294.086,212.617c0,0,13.137-2.688,14.613-2.556
			c1.477,0.135,5.682,1.243,5.682,6.075c0,4.831-0.806,12.612-15.029,21.605c-14.226,8.989-25.095,13.013-40.729,13.617
			c-22.012,0.852-43.458-1.322-51.913-2.056l-22.592-2.726"/>
		<path fill="none" stroke="#FFFFFF" stroke-width="0.85" d="M300.424,238.679c11.89-7.308,19.364-18.435,13.553-26.973
			c0,0-1.446-2.212-6.341-1.503"/>
		<path fill="none" stroke="#FFFFFF" stroke-width="0.85" d="M300.693,209.293c-1.073,0.805-0.305,2.093,1.977,1.689"/>
		<path fill="none" stroke="#FFFFFF" stroke-width="0.85" d="M230.85,254.906c-0.778,1.626-1.578,4.063-1.758,5.098
			c-0.18,1.039-0.317,2.979,2.346,3.066c2.661,0.094,10.871-0.223,11.639-0.358c0.767-0.137,2.659-1.444,2.841-3.067
			s0.314-4.15,0.225-4.918c-0.088-0.766-1.353-1.894-2.797-2.03c-1.443-0.134-7.352-0.403-8.885-0.18
			C232.927,252.743,231.392,253.781,230.85,254.906z"/>
		<path fill="none" stroke="#FFFFFF" stroke-width="0.85" d="M13.66,137.937c0.37,0.369,0.906-0.152,1.358-0.605
			c0.453-0.452,3.825-4.376,4.228-5.081c0.402-0.706,1.057-2.164,0.853-3.824c-0.2-1.661-0.552-4.378-1.005-5.034
			c-0.453-0.654-1.309-1.205-2.114-0.902c-0.805,0.301-3.32,3.271-3.823,4.225c-0.504,0.956-0.604,2.114-0.604,3.172
			c0,1.056,0.3,6.641,0.503,7.195C13.256,137.633,13.509,137.784,13.66,137.937z"/>
		<path fill="none" stroke="#FFFFFF" stroke-width="0.85" d="M30.768,167.827c-3.522-7.247-10.063-28.08-11.069-36.23"/>
		<path fill="none" stroke="#FFFFFF" stroke-width="0.85" d="M18.491,122.136c-0.605-6.14-1.511-14.695,0.392-22.905"/>
		<path fill="none" stroke="#FFFFFF" stroke-width="0.85" d="M38.393,60.25c-10.18,12.917-4.012,39.542-2.643,47.079
			c1.37,7.536,1.174,10.766,1.077,15.268l0.309,1.227"/>
		<path fill="none" stroke="#FFFFFF" stroke-width="0.85" d="M40.363,124.483C59.535,79.485,89.574,30.525,116.486,0.844"/>
		<path fill="none" stroke="#FFFFFF" stroke-width="0.85" d="M39.202,128.18c-1.61,4.457-3.343,10.154,3.838,17.957"/>
		<path fill="none" stroke="#FFFFFF" stroke-width="0.85" d="M196.131,0.24c-38.232,31.141-90.04,81.556-116.45,126.122"/>
		<path fill="none" stroke="#FFFFFF" stroke-width="0.85" d="M339.542,67.789c-27.377,16.705-142.913,85.344-173.107,110.101"/>
		<path fill="none" stroke="#FFFFFF" stroke-width="0.85" d="M192.199,209.09c36.233-16.909,208.331-96.616,238.322-112.116"/>
		<path fill="none" stroke="#FFFFFF" stroke-width="0.85" d="M437.969,92.949c6.039-3.021,16.104-8.252,22.746-15.098"/>
		<path fill="none" stroke="#FFFFFF" stroke-width="0.85" d="M426.208,118.139c-25.51,12.02-172.224,72.264-192.342,80.888"/>
		<path fill="none" stroke="#FFFFFF" stroke-width="0.85" d="M469.443,95.034c-11.471,6.322-24.345,13.062-34.873,18.717"/>
		<path fill="none" stroke="#FFFFFF" stroke-width="0.85" d="M320.621,207.281c20.17-13.565,116.479-78.578,148.695-99.159"/>
		<path fill="none" stroke="#FFFFFF" stroke-width="0.85" d="M462.257,213.184c-0.938-0.939-1.476-2.688-1.071-4.697
			c0.401-2.014,2.685-19.323-7.381-29.388"/>
		<path fill="none" stroke="#FFFFFF" stroke-width="0.85" d="M465.48,211.975c0.4-4.966,1.475-22.408-8.991-31.131"/>
		<path fill="none" stroke="#FFFFFF" stroke-width="0.85" d="M468.64,73.389c-8.854,3.166-20.79,5.37-28.015,5.72
			c-1.043,0.049-1.253,0.625-1.323,0.833c0,0-0.289-0.589-2.036-0.579c-7.649,0.03-25.666-1.108-55.957-10.065
			c-30.295-8.957-70.753-27.575-91.385-38.948c-13.611-7.503-31.563-18.118-47.548-29.328"/>
		<path fill="none" stroke="#FFFFFF" stroke-width="0.85" d="M456.084,220.698c1.343-2.282,3.088-6.979,3.088-6.979
			s0.134-1.341,1.609-0.938s3.354,1.88,7.113-0.672c1.28-0.867,3.062-2.235,5.006-3.748"/>
		<path fill="none" stroke="#FFFFFF" stroke-width="0.85" d="M466.015,215.061l0.137,2.952c0,0-2.551,11.944-7.247,16.909"/>
		<path fill="none" stroke="#FFFFFF" stroke-width="0.85" d="M455.282,236.534c1.609,0.401,4.097-0.414,6.438-1.881
			c1.975-1.233,5.913-3.273,9.965-5.285"/>
		<path fill="none" stroke="#FFFFFF" stroke-width="0.85" d="M457.696,76.576c0.706-1.22,4.794-8.574,10.822-19.383"/>
		<path fill="none" stroke="#FFFFFF" stroke-width="0.85" d="M456.428,230.79c2.227-3.828,4.942-10.235,6.473-16.291"/>
		<path fill="none" stroke="#FFFFFF" stroke-width="0.85" d="M103.138,204.57c-0.002,0.011-0.003,0.015-0.003,0.015l8.365,0.94
			c6.55,0.876,13.108,1.702,19.677,2.444c0.947,0.121,1.877,0.362,2.769,0.724c0.239,0.142,0.406,0.394,0.425,0.679
			c0.029,0.467-0.311,0.858-0.755,0.886c-0.081,0.007-0.162,0-0.243-0.017"/>
		<path fill="none" stroke="#FFFFFF" stroke-width="0.85" d="M360.148,225.512c8.428-11.746,31.501-38.687,56.229-48.635
			c24.731-9.945,40.206-4.975,45.731,0.69c5.526,5.665,10.362,19.345,7.736,32.328"/>
		<path fill="none" stroke="#FFFFFF" stroke-width="0.85" d="M255.283,0.125l29.244,19.365c22.07,12.669,58.033,31.993,81.519,41.386
			l15.566,6.307c10.332,3.893,45.772,13.997,70.063,9.435"/>
		<path fill="none" stroke="#FFFFFF" stroke-width="0.85" d="M332.625,305.379c18.877,12.879,35.029,19.062,35.029,19.062
			c24.247,7.6,55.679-12.519,74.474-47.32c20.048-37.129,16.86-74.314-2.082-88.819c0,0-6.273-4.473-12.58-8.098"/>
		<path fill="none" stroke="#FFFFFF" stroke-width="0.85" d="M360.762,319.012c-16.422-14.536-15.712-50.521,2.691-84.601
			c18.376-34.029,48.015-54.351,69.172-48.679"/>
		<path fill="none" stroke="#FFFFFF" stroke-width="0.85" d="M429.126,207.316c-15.624-8.7-40.315,5.841-55.149,32.48
			c-14.832,26.637-14.188,55.285,1.438,63.982"/>
		<path fill="none" stroke="#FFFFFF" stroke-width="0.85" d="M375.398,303.773c15.814,8.807,40.66-5.647,55.493-32.287
			c14.835-26.64,14.038-55.37-1.776-64.18"/>
	</g>
</svg>
